<?xml version="1.0" encoding="utf-8"?>
<!-- Generator: Adobe Illustrator 16.0.3, SVG Export Plug-In . SVG Version: 6.00 Build 0)  -->
<!DOCTYPE svg PUBLIC "-//W3C//DTD SVG 1.1//EN" "http://www.w3.org/Graphics/SVG/1.1/DTD/svg11.dtd">
<svg version="1.1" id="Layer_1" xmlns="http://www.w3.org/2000/svg" xmlns:xlink="http://www.w3.org/1999/xlink" x="0px" y="0px"
	 width="86px" height="49px" viewBox="0 0 86 49" enable-background="new 0 0 86 49" xml:space="preserve">
<path fill="#FFFFFF" d="M0,47.988v-8.439h5.965v8.439H0z"/>
<path fill="#FFFFFF" d="M13.581,9.533V0h10.565v9.533H13.581z M13.581,47.988V13.521h10.565v34.468H13.581z"/>
<path fill="#FFFFFF" d="M47.774,48.639c-2.904,0-5.495-0.404-7.778-1.406c-2.333-1.004-4.338-2.324-5.878-3.955
	c-1.535-1.631-2.801-3.49-3.539-5.734c-0.875-2.092-1.27-4.357-1.27-6.703c0-2.379,0.395-4.68,1.27-6.856
	c0.737-2.168,2.003-4.095,3.539-5.734c1.54-1.631,3.545-2.935,5.878-3.914c2.283-0.978,4.874-1.472,7.778-1.472
	c2.942,0,5.618,0.494,7.882,1.472c2.251,0.979,4.145,2.283,5.764,3.914c1.603,1.639,2.748,3.567,3.654,5.734
	c0.755,2.177,1.209,4.476,1.209,6.856c0,2.346-0.438,4.611-1.192,6.703c-0.845,2.244-2.007,4.104-3.66,5.734
	c-1.534,1.631-3.443,2.951-5.729,3.955C53.393,48.234,50.717,48.639,47.774,48.639z"/>
<path fill="#FFFFFF" d="M67.493,47.932c-2.904,0-5.496-0.4-7.779-1.367c-2.308-1.004-4.314-2.342-5.877-3.992
	c-1.535-1.631-2.794-3.494-3.541-5.709c-0.874-2.119-1.261-4.355-1.261-6.732s0.386-4.639,1.261-6.856
	c0.746-2.167,2.005-4.057,3.541-5.73c1.563-1.635,3.569-2.939,5.877-3.917c2.283-0.978,4.875-1.467,7.779-1.467
	c2.949,0,5.625,0.489,7.882,1.467c2.248,0.978,4.145,2.283,5.771,3.917c1.594,1.672,2.739,3.563,3.646,5.73
	C85.547,25.49,86,27.752,86,30.131c0,2.377-0.438,4.613-1.167,6.732c-0.869,2.215-2.007,4.078-3.683,5.709
	c-1.536,1.65-3.446,2.988-5.729,3.992C73.118,47.531,70.442,47.932,67.493,47.932z"/>
</svg>
