<?xml version="1.0" encoding="utf-8"?>
<!-- Generator: Adobe Illustrator 16.0.3, SVG Export Plug-In . SVG Version: 6.00 Build 0)  -->
<!DOCTYPE svg PUBLIC "-//W3C//DTD SVG 1.1//EN" "http://www.w3.org/Graphics/SVG/1.1/DTD/svg11.dtd">
<svg version="1.1" id="Layer_1" xmlns="http://www.w3.org/2000/svg" xmlns:xlink="http://www.w3.org/1999/xlink" x="0px" y="0px"
	 width="430px" height="340px" viewBox="0 0 430 340" enable-background="new 0 0 430 340" xml:space="preserve">
<path fill="#6D28D9" d="M200.954,11.926l66.125,15.042l79.999,18.2l55.779,12.674v25.141l21.559,11.696v23.936l-21.559,6.27V128
	v22.026l21.559,8.48v23.935l-21.559,9.487v25.139l12.63,56.798l-159.55,41.218l-14.35,3.711l-40.634,8.688l-22.831-4.922
	L14.54,274.432l0-49.806l12.677-6.625v-25.188l-21.681-9.577V159.45l21.681-8.617v-25.189l-21.681-5.841V96.016l21.681-12.352
	V58.475L200.954,11.926z"/>
<path fill="#7C3AED" d="M200.954,11.926v315.556l-22.831-4.922l-43.767-12.87L14.54,274.432l0-49.806L26,223l1.216-4.999v-25.188
	l-21.681-9.577L0,159.505L27,154l0.216-3.167v-25.189l-21.681-5.841V96.016l21.681-12.352V58.475L200.954,11.926z"/>
<g>
	<path fill="#FFFFFF" d="M58.896,247.558c-0.35-1.382-0.676-2.867-1.055-4.458c-0.316,1.482-0.626,2.853-1.021,4.103
		c-0.316,1.247-0.658,2.319-0.945,3.219l-4.055,14.068l12.24,2.979l-4.193-16.296C59.576,250.147,59.305,248.942,58.896,247.558z"/>
	<path fill="#FFFFFF" d="M335.717,252.109c-0.396-1.322-0.84-2.76-1.236-4.317c-0.354,1.713-0.719,3.313-1.1,4.789
		c-0.384,1.482-0.734,2.773-1.052,3.868l-4.758,17.202l13.726-2.958l-4.526-15.152C336.525,254.57,336.16,253.429,335.717,252.109z"
		/>
	<path fill="#FFFFFF" d="M424.416,86.699l-15.521-2.666v-24.8v-8.267l-6.038-1.504l-55.779-13.707l-3.892-0.97l-8.11-1.986
		l-54.354-13.371l-3.359-0.826l-3.744-0.917l-0.005-0.001v0l-6.535-1.616L221.934,4.951l-20.979-5.153l-28.981,8.389l-5.805,1.687
		l-11.325,3.264L96.101,30.142l-2.849,0.832l-8.421,2.435L27.216,50.08l-6.124,1.788v8.263v24.792L5.535,88.086L0,89.208v7.811
		v23.432v7.811l5.535-0.529l15.557-1.494v24.79L5.535,151.52L0,151.694v7.811l0,23.435v7.81l5.534,0.416l15.557,1.18v24.792v0.965
		l-11.119-1.578v63.535l188.273,58.89l2.708,0.85l219.02-60.111v-63.823l-11.078,1.405v-0.968V191.5l15.521-1.08l5.584-0.386v-7.876
		v-23.626v-7.875l-5.584-0.129l-15.521-0.36v-24.802l15.521,1.226l5.584,0.437v-7.875V95.528v-7.876L424.416,86.699z
		 M347.078,45.168l55.779,12.674v25.141l-55.779-9.57V45.168z M383.245,123.34l19.612,1.543v25.142l-55.779-1.294v-28.244
		l36.161,2.853L383.245,123.34z M291.688,76.864c1.526-7.816,8.335-12.774,15.188-11.072c6.905,1.705,11.234,9.414,9.764,17.239
		c-1.483,7.809-8.284,12.766-15.189,11.065C294.57,92.385,290.213,84.67,291.688,76.864z M273.888,127.624l9.354-15.761
		c0.642-1.053,1.505-1.913,2.52-2.503c0,0,21.037-12.941,24.768-13.649c4.637-0.881,7.246,0.999,10.175,2.392
		c3.547,1.682,14.151,5.835,14.151,5.835l10.678-10.296c2.783-2.68,6.979-2.292,9.332,0.864c2.339,3.169,2.004,7.923-0.763,10.582
		l-13.548,13.031c-1.209,1.157-2.715,1.778-4.285,1.778c-0.681,0-1.393-0.114-2.077-0.382l-7.8-2.94l3.151,26.601
		c0.159,1.194,0.539,4.551-0.205,7.318l-7.474,27.229l5.961,25.897c1.115,4.676-1.348,9.466-5.503,10.695
		c-0.637,0.199-1.288,0.29-1.952,0.29c-3.43,0-6.525-2.603-7.443-6.535l-6.594-28.326c-0.364-1.59-0.325-3.266,0.106-4.834
		l3.776-13.748l-8.552,4.36l3.644,20.449c0.85,4.741-1.867,9.364-6.041,10.327c-0.498,0.12-1.009,0.178-1.529,0.178
		c-3.578,0-6.822-2.863-7.551-7.017l-4.872-27.327c-0.757-4.017,1.093-8.067,4.383-9.738l13.444-6.819l-3.267-27.46l-6.611,3.794
		l-8.41,14.126c-1.28,2.147-3.363,3.317-5.487,3.317c-1.277,0-2.568-0.427-3.689-1.292
		C272.641,135.74,271.85,131.058,273.888,127.624z M402.857,191.929v25.139l-55.779,6.98v-28.243L402.857,191.929z M171.973,19.692
		l28.981-7.766l20.979,4.765l45.146,10.277v32.702l-45.146-7.76l-20.979-3.598l-28.981,5.898V19.692z M192.953,260.527l0-3.337
		l8,1.349l7.521-1.13v3.349l-5.466,0.846v14.977l-2.055,0.368l-2.501-0.507v-14.953L192.953,260.527z M200.954,242.364
		l-28.981-4.066v-34.517l28.981,2.197l20.979-1.458l45.146-3.146v32.702l-45.146,5.663L200.954,242.364z M66.351,186.54v-27.708
		l50.933-0.517v30.994L66.351,186.54z M84.83,197.177v28.903l-57.614-8.079v-25.188L84.83,197.177z M27.216,150.833v-25.189
		l57.614-5.533v28.9L27.216,150.833z M96.101,148.654v-29.628l58.742-5.645v33.414L96.101,148.654z M96.101,198.033l58.742,4.452
		v33.414l-58.742-8.238V198.033z M131.967,190.104v-31.939l68.987-0.699l20.979,0.096l3.992,0.019v34.995l-3.992,0.204
		l-20.979,1.068L131.967,190.104z M221.934,145.825l-20.979-0.487l-28.981,0.916v-34.517l28.981-2.784l20.979,1.652l45.146,3.566
		v32.702L221.934,145.825z M200.954,60.439l20.979,3.21l3.992,0.616v34.994l-3.992-0.393l-20.979-2.043l-68.987,8.108v-31.94
		L200.954,60.439z M96.101,40.018l58.742-15.742v33.416L96.101,69.646V40.018z M117.284,75.665v30.995l-50.933,5.991V84.94
		L117.284,75.665z M27.216,58.475L84.83,43.043v28.901l-57.614,11.72V58.475z M5.535,119.803V96.016l50.916-9.274v27.071
		L5.535,119.803z M5.535,183.235V159.45l50.916-0.517v27.072L5.535,183.235z M23.127,276.961l-8.587-2.529l0-49.806l24.663,4.013
		l0,9.471l-16.076-2.995v12.899l13.299,2.919v9.441l-13.299-3.235V276.961z M72.959,291.626c-0.971-0.284-1.741-0.783-2.357-1.505
		c-0.614-0.715-1.044-1.523-1.293-2.428l-2.785-10.674l-17.018-4.506l-2.523,8.764c-0.189,0.638-0.549,1.15-1.104,1.541
		c-0.595,0.395-1.26,0.47-2.09,0.231l-7.386-2.188l16.195-50.046l10.651,1.727l18.528,61.675L72.959,291.626z M94.139,275.921
		c0.695,2.583,1.713,4.864,2.978,6.845c1.296,1.99,2.825,3.653,4.59,4.984c1.704,1.343,3.591,2.291,5.683,2.844
		c1.148,0.318,2.243,0.545,3.199,0.685c1.002,0.135,1.912,0.161,2.768,0.075c0.857-0.088,1.665-0.28,2.434-0.578
		c0.833-0.297,1.605-0.717,2.392-1.26c0.346-0.206,0.686-0.355,1.043-0.447c0.358-0.091,0.765-0.083,1.185,0.021
		c0.322,0.085,0.639,0.234,0.98,0.452c0.288,0.214,0.64,0.522,0.918,0.924l5.533,7.714c-2.403,2.72-5.456,4.41-9.041,5.084
		c-3.51,0.665-7.629,0.295-12.252-1.081c-4.197-1.241-7.927-3.12-11.115-5.626c-3.16-2.477-5.855-5.366-7.979-8.68
		c-2.118-3.282-3.779-6.904-4.879-10.871c-1.152-3.947-1.68-8.056-1.68-12.343c0-4.366,0.642-8.245,1.933-11.648
		c1.267-3.427,3.086-6.264,5.456-8.523c2.318-2.282,5.249-3.902,8.609-4.856c2.151-0.603,4.475-0.883,6.949-0.843l9.067,1.463
		c0.58,0.175,1.108,0.356,1.622,0.561c1.906,0.729,3.765,1.606,5.457,2.629c1.682,1.027,3.254,2.186,4.699,3.477
		c1.456,1.299,2.776,2.686,3.92,4.163l-4.736,5.899c-0.303,0.354-0.667,0.661-1.072,0.915c-0.404,0.259-0.95,0.313-1.725,0.171
		c-0.447-0.094-0.903-0.302-1.337-0.619c-0.436-0.316-0.907-0.688-1.415-1.115c-0.434-0.428-0.992-0.892-1.54-1.393
		c-0.573-0.498-1.242-0.989-2.033-1.469c-0.801-0.476-1.68-0.927-2.738-1.35c-1.037-0.42-2.209-0.758-3.561-1.013
		c-2.337-0.438-4.474-0.374-6.388,0.179c-1.892,0.551-3.491,1.538-4.845,2.958c-1.358,1.415-2.383,3.229-3.078,5.451
		c-0.779,2.212-1.124,4.789-1.124,7.733C93.015,270.515,93.36,273.342,94.139,275.921z M134.357,309.69v-65.592l43.766,7.106v12.736
		l-28.739-5.347v15.771l21.696,4.706v12.087l-21.696-5.198v16.091l28.739,7.778l0,12.731L134.357,309.69z M207.332,310.873
		l-6.378,1.485l-1.624-0.433v4.283l1.624,0.445l4.499-1.083v3.136l-4.499,1.106l-1.624-0.456v4.373l1.624,0.467l6.378-1.603v3.253
		l-6.378,1.635l-6.22-1.81v-18.202l6.22,1.604l6.378-1.454V310.873z M209.23,300.418l-4.511,0.978v-7.736l-3.766,0.772l-4.226-0.98
		v7.726l-4.514-1.117v-18.121l4.514,0.969v7.638l4.226,0.958l3.766-0.758v-7.65l4.511-0.851V300.418z M282.626,308.181
		l-11.672-38.129c-0.29-0.601-0.412-1.26-0.722-1.979c-0.134-0.72-0.428-1.49-0.547-2.304c-0.291,0.89-0.414,1.733-0.721,2.538
		c-0.14,0.802-0.428,1.542-0.556,2.221l-12.472,44.556l-14.35,3.711L219.1,252.289l14.359-2.071
		c1.484-0.207,2.697-0.059,3.592,0.444c0.947,0.502,1.657,1.259,1.893,2.273l9.495,34.532c0.37,1.104,0.714,2.281,0.98,3.539
		c0.266,1.256,0.599,2.588,0.644,4.001c0.426-1.549,0.751-3.015,1.104-4.397c0.353-1.383,0.682-2.69,1.001-3.924l10.851-37.358
		c0.205-0.904,0.843-1.767,1.733-2.586c0.854-0.819,1.858-1.314,3.085-1.496l4.44-0.632c1.273-0.182,2.223-0.038,3.029,0.432
		c0.803,0.468,1.426,1.19,1.693,2.167l9.876,32.214c0.252,0.972,0.565,2.003,0.976,3.099c0.305,1.096,0.536,2.277,0.84,3.547
		c0.179-1.344,0.43-2.629,0.652-3.855c0.188-1.226,0.49-2.38,0.66-3.46l8.057-34.705c0.299-0.872,0.709-1.685,1.549-2.437
		c0.819-0.749,1.68-1.202,2.826-1.361l10.201-1.471l-17.523,66.163L282.626,308.181z M350.438,290.654
		c-0.883,0.247-1.68,0.183-2.358-0.2c-0.604-0.38-1.001-0.962-1.314-1.747l-2.815-9.405l-19.148,4.46l-3.123,11.292
		c-0.232,0.84-0.663,1.66-1.48,2.466c-0.658,0.808-1.537,1.347-2.521,1.611l-9.968,2.561l20.819-65.205l11.876-1.729l18.433,53.733
		L350.438,290.654z M388.23,280.887l-25.674,6.654v-55.974l10.139-1.479v44.648l15.535-3.679V280.887z M415.487,264.611v9.254
		l-22.802,5.882v-52.538l8.982-1.306v41.963L415.487,264.611z M424.416,158.506v23.935l-36.605,1.868v-25.973L424.416,158.506z
		 M424.416,118.614l-36.605-3.568V89.074l36.605,5.605V118.614z"/>
</g>
</svg>
