<?xml version="1.0" encoding="utf-8"?>
<!-- Generator: Adobe Illustrator 16.0.3, SVG Export Plug-In . SVG Version: 6.00 Build 0)  -->
<!DOCTYPE svg PUBLIC "-//W3C//DTD SVG 1.1//EN" "http://www.w3.org/Graphics/SVG/1.1/DTD/svg11.dtd">
<svg version="1.1" id="Layer_3" xmlns="http://www.w3.org/2000/svg" xmlns:xlink="http://www.w3.org/1999/xlink" x="0px" y="0px"
	 width="526px" height="533px" viewBox="0 0 526 533" enable-background="new 0 0 526 533" xml:space="preserve">
<g>
	<polygon fill="#CBD5E0" points="120.308,203.032 109.726,196.923 110.75,199.25 112.044,200.779 116.923,203.596 	"/>
	<polygon fill="#CBD5E0" points="126.176,215.745 127.25,217.75 127.947,219.036 176.221,246.907 179,247 180.071,246.862 	"/>
	<polygon fill="#CBD5E0" points="134.741,229.263 135.5,230.25 140.75,234 144.25,237.25 151.75,240.5 156.5,242.75 
		160.288,244.013 	"/>
	<polygon fill="#CBD5E0" points="129.537,221.972 130.5,223.75 131.948,225.633 166.947,245.839 171.5,246.75 172.513,246.784 	"/>
	<polygon fill="#CBD5E0" points="122.833,209.027 123.5,210.75 124.611,212.824 182.928,246.493 186.75,246 186.836,245.979 	"/>
	<polygon fill="#CBD5E0" points="86.891,125.507 86,125.75 86,127.262 240.402,216.406 240.75,216 241.342,214.68 	"/>
	<polygon fill="#CBD5E0" points="101.042,164.937 102.392,168.235 217.88,234.913 220,233.75 220.111,233.681 	"/>
	<polygon fill="#CBD5E0" points="86,133.815 86,134.5 93.75,140.25 94.347,141.405 234.871,222.537 236.25,221.25 236.645,220.79 	
		"/>
	<polygon fill="#CBD5E0" points="120.571,203.184 121.827,206.428 189.302,245.384 192.378,244.642 	"/>
	<polygon fill="#CBD5E0" points="103.063,170.64 103.75,173.25 103.814,173.845 213.626,237.245 216.089,235.895 	"/>
	<polygon fill="#CBD5E0" points="98.005,158.896 98.25,160 99.667,162.125 221.784,232.629 223.665,231.446 	"/>
	<polygon fill="#CBD5E0" points="104.044,175.994 104.303,178.415 209.482,239.14 211.778,238.194 	"/>
	<polygon fill="#CBD5E0" points="104.611,180.608 105.469,183.374 205.149,240.924 207.444,239.979 	"/>
	<polygon fill="#CBD5E0" points="101.984,156.405 102,156.5 99.5,157 98.763,157.316 225.338,230.395 227.636,228.95 	"/>
	<polygon fill="#CBD5E0" points="106.231,185.83 106.75,187.5 107.117,189.114 199.788,242.618 203.015,241.708 	"/>
	<polygon fill="#CBD5E0" points="107.644,191.435 108,193 108.537,194.22 194.8,244.024 197.442,243.279 	"/>
	<polygon fill="#CBD5E0" points="153.25,4.25 153.247,4.25 256.27,63.73 257.5,62.5 257.42,62.126 155.203,3.111 	"/>
	<polygon fill="#CBD5E0" points="139.878,5.607 257.671,73.615 257,71.75 256.781,70.832 142.699,4.966 	"/>
	<polygon fill="#CBD5E0" points="97.567,122.596 94.306,123.485 243.587,209.672 244,208.75 244.554,207.458 	"/>
	<polygon fill="#CBD5E0" points="159.75,2.75 157.833,2.613 256.927,59.825 256.75,59 255.212,56.565 161.422,2.416 	"/>
	<polygon fill="#CBD5E0" points="188.886,2.643 245.346,35.241 244.25,32.5 238.75,28.75 238.487,28.509 190.919,1.046 	"/>
	<polygon fill="#CBD5E0" points="123.725,9.893 260.01,88.577 260,88.25 259.851,86.215 125.875,8.864 	"/>
	<polygon fill="#CBD5E0" points="167.25,1.25 164.017,1.896 253.552,53.589 253,51.75 249,50.25 248.882,48.122 167.77,1.292 	"/>
	<polygon fill="#CBD5E0" points="133.5,5.75 132.735,6.02 259.331,79.11 259.25,78 258.588,76.162 136.631,5.75 	"/>
	<polygon fill="#CBD5E0" points="95.398,76.474 95.556,78.833 253.25,169.878 253.25,168.25 253.25,167.609 	"/>
	<polygon fill="#CBD5E0" points="95.006,67.172 95.104,70 263.896,167.452 266,166.25 266.26,166.045 	"/>
	<polygon fill="#CBD5E0" points="98.224,114.152 98.721,116.709 246.805,202.205 247,201.75 247.339,200.244 	"/>
	<polygon fill="#CBD5E0" points="262.75,112.25 262.22,112.539 275.519,120.217 275.25,118.25 272.979,115.979 266.52,112.25 	"/>
	<polygon fill="#CBD5E0" points="117.75,14.5 117.173,15.185 260.174,97.746 260.25,96.5 260.204,94.992 119.04,13.491 	"/>
	<polygon fill="#CBD5E0" points="260,113.75 259.986,113.267 108.205,25.636 108,26 106.868,27.132 276.022,124.794 276,123.75 
		275.816,122.406 260.423,113.519 	"/>
	<polygon fill="#CBD5E0" points="94.78,53.43 94.979,56.317 272.846,159.008 273.75,157.5 274.064,156.94 	"/>
	<polygon fill="#CBD5E0" points="95.174,72.058 95.25,74.25 95.258,74.376 257.838,168.241 260,168.75 260.067,169.06 
		260.628,168.094 261.663,168.18 	"/>
	<polygon fill="#CBD5E0" points="259.93,111.217 259.852,108.4 110.238,22.021 109.061,24.113 	"/>
	<polygon fill="#CBD5E0" points="259.805,103.837 113.558,19.401 111.709,20.853 259.794,106.35 259.75,104.75 	"/>
	<polygon fill="#CBD5E0" points="116.03,16.542 114.744,18.069 259.923,101.888 260.056,99.696 	"/>
	<polygon fill="#CBD5E0" points="96.877,41.279 95.36,43.175 277.5,148.334 277.5,145.562 	"/>
	<polygon fill="#CBD5E0" points="101.226,34.968 99.984,36.521 277.138,138.8 276.475,136.147 	"/>
	<polygon fill="#CBD5E0" points="98.909,37.917 97.864,39.832 277.5,143.545 277.5,141.026 	"/>
	<polygon fill="#CBD5E0" points="122.191,11.024 120.522,12.33 260.142,92.939 260.072,90.63 	"/>
	<polygon fill="#CBD5E0" points="103.309,31.382 102.234,33.532 276.223,133.985 276.161,131.178 	"/>
	<polygon fill="#CBD5E0" points="105.589,28.411 104.149,29.851 276.117,129.136 276.067,126.837 	"/>
	<polygon fill="#CBD5E0" points="205.16,7.25 207.148,8.398 206,7.25 	"/>
	<polygon fill="#CBD5E0" points="197.767,2.982 199.506,3.986 199,3.25 	"/>
	<polygon fill="#CBD5E0" points="225,18 220.75,15.25 216.75,12.5 213,10.25 210.355,10.25 234.063,23.938 235.5,22.5 229.75,21.25 
			"/>
	<polygon fill="#CBD5E0" points="181.028,0.124 179.025,1.236 251.08,42.837 252.322,41.285 	"/>
	<polygon fill="#CBD5E0" points="255.75,65.448 150.375,4.609 149.25,4.75 145.453,4.539 256.225,68.493 255.75,66.5 	"/>
	<polygon fill="#CBD5E0" points="249.976,44.217 176.023,1.521 173.5,1.75 171.826,1.616 248.766,46.038 248.75,45.75 	"/>
	<polygon fill="#CBD5E0" points="130.567,6.785 129.25,7.25 127.785,7.951 259.697,84.11 259.485,81.216 	"/>
	<polygon fill="#CBD5E0" points="97.301,100.258 97.733,102.777 249.69,190.51 250.359,188.625 	"/>
	<polygon fill="#CBD5E0" points="98.312,109.414 98.083,112.053 247.741,198.458 248.292,196.005 	"/>
	<polygon fill="#CBD5E0" points="98.117,105.016 98.5,107.25 98.479,107.494 248.694,194.221 249.146,192.212 	"/>
	<polygon fill="#CBD5E0" points="99.163,118.98 99.715,121.818 245.247,205.841 246.112,203.822 	"/>
	<polygon fill="#CBD5E0" points="91.934,124.132 89.264,124.86 242.061,213.077 242.869,211.274 	"/>
	<polygon fill="#CBD5E0" points="95.83,144.279 97.498,147.511 232.033,225.186 233.536,223.783 	"/>
	<polygon fill="#CBD5E0" points="99.632,150.761 101.5,153.5 101.612,154.174 229.196,227.834 230.698,226.432 	"/>
	<polygon fill="#CBD5E0" points="86,129.279 86,131.798 237.801,219.44 239.246,217.755 	"/>
	<polygon fill="#CBD5E0" points="94.212,44.529 92.778,45.918 92.806,45.987 276.636,152.122 277.463,150.33 	"/>
	<polygon fill="#CBD5E0" points="95.124,58.417 95.25,60.25 95.231,60.75 270.935,162.192 271.946,160.506 	"/>
	<polygon fill="#CBD5E0" points="96.66,95.099 96.954,98.041 250.953,186.952 251.769,184.651 	"/>
	<polygon fill="#CBD5E0" points="93.875,48.622 93.952,48.811 94.407,51.198 274.921,155.418 275.885,153.705 	"/>
	<polygon fill="#CBD5E0" points="95.158,62.724 95.067,65.19 267.735,164.88 269.578,163.425 	"/>
	<polygon fill="#CBD5E0" points="96.212,90.305 96.25,91 96.446,92.959 252.188,182.876 252.57,180.578 	"/>
	<polygon fill="#CBD5E0" points="95.695,80.931 95.75,81.75 95.861,83.798 253.25,174.667 253.25,171.896 	"/>
	<polygon fill="#CBD5E0" points="95.973,85.88 96.1,88.222 252.877,178.737 253.222,176.667 	"/>
</g>
<g>
	<polygon fill="#A0AEC0" points="189.75,314.969 189.75,317.739 254,354.834 254,354.5 254.725,352.482 	"/>
	<polygon fill="#A0AEC0" points="217.358,339.983 222,343.25 230,349.25 231.021,350.389 252.658,362.881 253.523,360.863 	"/>
	<polygon fill="#A0AEC0" points="253.963,307.171 161.971,254.06 162.5,255.25 164.273,257.909 253.852,309.627 253.75,307.5 	"/>
	<polygon fill="#A0AEC0" points="180.201,282.482 180.75,283.25 180.451,285.007 181,284.5 182.713,286.702 258.75,330.603 
		258.75,330.5 258.75,327.832 	"/>
	<polygon fill="#A0AEC0" points="188.5,296.349 188.5,297.5 188.784,299.031 258.546,339.309 258.75,338.25 258.75,336.907 	"/>
	<polygon fill="#A0AEC0" points="177,278 177.748,279.047 258.75,325.813 258.75,324.75 258.229,323.244 174.64,274.984 	"/>
	<polygon fill="#A0AEC0" points="189.202,301.291 189.75,304.25 189.75,304.378 257.717,343.619 258.197,341.126 	"/>
	<polygon fill="#A0AEC0" points="185.374,290.257 188.012,294.048 258.75,334.889 258.75,332.62 	"/>
	<polygon fill="#A0AEC0" points="190.394,320.129 191.5,322.5 196.5,325.5 199.75,325.75 203.5,328.75 204.493,330.538 254,359.12 
		254,356.852 	"/>
	<polygon fill="#A0AEC0" points="189.75,310.682 189.75,311.75 189.75,312.95 255.325,350.81 255.999,348.931 	"/>
	<polygon fill="#A0AEC0" points="189.75,306.396 189.75,308.665 256.599,347.26 257.274,345.38 	"/>
	<polygon fill="#A0AEC0" points="234.771,354.571 236.5,356.5 240.293,360.53 247.169,364.5 249,364.5 250.833,363.846 	"/>
	<polygon fill="#A0AEC0" points="248.694,194.221 275.236,209.545 273,207 272.428,205.654 249.146,192.212 	"/>
	<polygon fill="#A0AEC0" points="246.112,203.822 245.247,205.841 291.25,232.401 291.25,231.25 291.25,229.882 	"/>
	<polygon fill="#A0AEC0" points="168,263.5 168.987,265.42 255.08,315.125 254,312.75 253.95,311.699 166.456,261.184 	"/>
	<polygon fill="#A0AEC0" points="242.869,211.274 242.061,213.077 290.997,241.331 291.25,240.25 291.25,239.207 	"/>
	<polygon fill="#A0AEC0" points="250.953,186.952 268.878,197.301 268.75,197 267.229,193.577 251.769,184.651 	"/>
	<polygon fill="#A0AEC0" points="253.25,174.667 262.446,179.976 262,178 261.74,176.797 253.25,171.896 	"/>
	<polygon fill="#A0AEC0" points="236.645,220.79 236.25,221.25 234.871,222.537 288.071,253.252 288.5,252 288.762,250.88 	"/>
	<polygon fill="#A0AEC0" points="172.513,246.784 171.5,246.75 166.947,245.839 260.968,300.122 261.5,299.75 262.544,298.764 	"/>
	<polygon fill="#A0AEC0" points="207.444,239.979 205.149,240.924 275.959,281.806 276.75,280.5 276.952,280.109 	"/>
	<polygon fill="#A0AEC0" points="216.089,235.895 213.626,237.245 279.463,275.256 280.5,273.25 280.555,273.114 	"/>
	<polygon fill="#A0AEC0" points="172.123,271.517 257.357,320.727 256.5,318.25 256.321,317.855 170.46,268.284 	"/>
	<polygon fill="#A0AEC0" points="247.339,200.244 247,201.75 246.805,202.205 291.25,227.865 291.25,225.596 	"/>
	<polygon fill="#A0AEC0" points="244.554,207.458 244,208.75 243.587,209.672 291.25,237.19 291.25,234.418 	"/>
	<polygon fill="#A0AEC0" points="239.246,217.755 237.801,219.44 289.178,249.103 289.697,246.884 	"/>
	<polygon fill="#A0AEC0" points="233.536,223.783 232.033,225.186 286.847,256.832 287.495,254.937 	"/>
	<polygon fill="#A0AEC0" points="241.342,214.68 240.75,216 240.402,216.406 290.113,245.107 290.581,243.108 	"/>
	<polygon fill="#A0AEC0" points="287.258,218.502 285.25,218 282,216.75 282.552,216.631 280.25,215.25 278.833,213.638 
		248.292,196.005 247.741,198.458 291.25,223.579 291.25,220.807 	"/>
	<polygon fill="#A0AEC0" points="257.838,168.241 260.183,169.595 260,168.75 	"/>
	<polygon fill="#A0AEC0" points="253.25,167.609 253.25,168.25 253.25,169.878 261.242,174.492 260.681,171.899 	"/>
	<polygon fill="#A0AEC0" points="252.57,180.578 252.188,182.876 266.022,190.864 264.517,187.476 	"/>
	<polygon fill="#A0AEC0" points="253.222,176.667 252.877,178.737 263.559,184.905 262.97,182.295 	"/>
	<polygon fill="#A0AEC0" points="250.359,188.625 249.69,190.51 271.292,202.982 270.014,199.973 	"/>
	<polygon fill="#A0AEC0" points="192.378,244.642 189.302,245.384 269.479,291.674 270.979,290.022 	"/>
	<polygon fill="#A0AEC0" points="186.836,245.979 186.75,246 182.928,246.493 266.623,294.814 268.275,292.998 	"/>
	<polygon fill="#A0AEC0" points="159.409,248.294 160.765,251.346 254.913,305.702 255.982,304.051 	"/>
	<polygon fill="#A0AEC0" points="197.442,243.279 194.8,244.024 271.889,288.531 272.907,286.85 	"/>
	<polygon fill="#A0AEC0" points="180.071,246.862 179,247 176.221,246.907 263.87,297.512 265.361,296.104 	"/>
	<polygon fill="#A0AEC0" points="160.288,244.013 156.5,242.75 158.075,245.507 257.219,302.747 259.388,301.229 	"/>
	<polygon fill="#A0AEC0" points="220.111,233.681 220,233.75 217.88,234.913 281.216,271.479 282.042,269.437 	"/>
	<polygon fill="#A0AEC0" points="223.665,231.446 221.784,232.629 282.703,267.801 283.446,265.961 	"/>
	<polygon fill="#A0AEC0" points="203.015,241.708 199.788,242.618 273.812,285.355 275.056,283.3 	"/>
	<polygon fill="#A0AEC0" points="227.636,228.95 225.338,230.395 284.108,264.325 285.017,262.079 	"/>
	<polygon fill="#A0AEC0" points="230.698,226.432 229.196,227.834 285.622,260.412 286.271,258.517 	"/>
	<polygon fill="#A0AEC0" points="211.778,238.194 209.482,239.14 277.755,278.557 278.659,276.809 	"/>
</g>
<polygon fill="#1A202C" points="522.75,463.75 521.25,450 518.75,441.75 516,438.25 517.25,429.75 517.25,416 515.25,407.5 
	511.25,398.75 508.25,387.75 504.25,378.75 498.5,360 495.5,351.25 490.75,338.75 485.5,322 480.25,310.25 477.75,302.5 473,294 
	465.25,283.25 458.5,274.25 450.5,260.75 442.5,250.5 433,240.5 425.25,232 416.75,228 409.25,225.5 400.5,224.25 384.5,224 
	371.25,224.25 356,223.25 345.5,222.25 329.75,221.25 320.75,219.75 313.25,217.75 307.25,217.5 304.25,214.75 297.25,214.75 
	291.25,214.75 282,216.75 285.25,218 291.25,219.5 291.25,224 291.25,231.25 291.25,240.25 288.5,252 285.25,261.5 280.5,273.25 
	276.75,280.5 271,290 266,295.5 261.5,299.75 256.5,303.25 253.75,307.5 254,312.75 256.5,318.25 258.75,324.75 258.75,330.5 
	258.75,338.25 257.5,344.75 254,354.5 254,359.75 252.5,363.25 249,364.5 246,364.5 243,363.75 240.5,360.75 236.5,356.5 
	230,349.25 222,343.25 215.25,338.5 206,333.25 203.5,328.75 199.75,325.75 196.5,325.5 191.5,322.5 189.75,318.75 189.75,311.75 
	189.75,304.25 188.5,297.5 188.5,294.75 184.5,289 181,284.5 177.75,287.5 174.5,292.5 169.25,298.25 164.25,302.5 157.75,307.5 
	150.25,313.25 140.25,318.5 128.75,325 119.5,331.5 113.75,338 106.189,343.041 99.25,354.75 98.25,359.25 98.25,364.25 96.5,369.5 
	93.25,375.25 89.75,379.5 86.25,379.25 85.5,373 83.75,376.75 80.25,384 79.5,390.25 79.25,398.5 77.25,408.75 73.75,416.25 69,422 
	65.5,430 64,435.75 65.75,455 71.5,480 76.5,494.25 80.25,505.5 85.75,516 94,524.75 103.25,533 450.25,533 455.5,529.25 
	460.75,526.5 468,524.25 477,523 491.5,523 503.75,523 513.25,525.25 519,528 526,531.5 526,513.75 526,486 "/>
<g>
	<polygon fill="#A0AEC0" points="23.443,501.792 23.517,504.608 72.691,533 77.497,533 	"/>
	<polygon fill="#A0AEC0" points="23.325,497.188 23.391,499.747 80.986,533 85.353,533 	"/>
	<polygon fill="#A0AEC0" points="22.736,474.412 22.809,477.225 83.921,512.508 81.84,508.536 	"/>
	<polygon fill="#A0AEC0" points="24.032,524.569 24.098,527.126 34.272,533 38.634,533 	"/>
	<polygon fill="#A0AEC0" points="23.212,492.837 23.271,495.141 88.846,533 92.776,533 	"/>
	<polygon fill="#A0AEC0" points="23.794,515.356 23.867,518.172 49.55,533 54.354,533 	"/>
	<polygon fill="#A0AEC0" points="23.569,506.652 23.629,508.959 65.269,533 69.205,533 	"/>
	<polygon fill="#A0AEC0" points="23.92,520.217 23.979,522.523 42.126,533 46.061,533 	"/>
	<polygon fill="#A0AEC0" points="23.682,511.004 23.741,513.311 57.845,533 61.78,533 	"/>
	<polygon fill="#A0AEC0" points="23.086,487.976 23.159,490.789 96.27,533 101.072,533 	"/>
	<polygon fill="#A0AEC0" points="21.797,438.074 21.856,440.377 68.593,467.36 67.991,464.744 	"/>
	<polygon fill="#A0AEC0" points="20,424.178 20,425 20.247,426.589 65.545,452.741 65.327,450.348 	"/>
	<polygon fill="#A0AEC0" points="20,419.39 20,422.16 65.133,448.218 64.868,445.294 	"/>
	<polygon fill="#A0AEC0" points="21.91,442.427 21.982,445.239 69.863,472.883 69.128,469.688 	"/>
	<polygon fill="#A0AEC0" points="22.267,456.242 22.339,459.057 74.773,489.33 73.554,485.853 	"/>
	<polygon fill="#A0AEC0" points="22.505,465.454 22.564,467.759 78.419,500.006 77.482,497.195 	"/>
	<polygon fill="#A0AEC0" points="22.147,451.639 22.214,454.195 72.667,483.324 71.559,480.166 	"/>
	<polygon fill="#A0AEC0" points="22.035,447.286 22.095,449.59 71,477.826 70.398,475.209 	"/>
	<polygon fill="#A0AEC0" points="54.992,331.701 54,331.25 53.915,331.079 0.535,300.26 0,300.75 0,302.726 98.25,359.45 
		98.25,359.25 98.757,356.969 	"/>
	<polygon fill="#A0AEC0" points="9.521,318.811 11.934,322.977 95.52,371.234 96.5,369.5 96.632,369.104 	"/>
	<polygon fill="#A0AEC0" points="20,374.519 20,376.787 76.849,409.609 77.25,408.75 77.457,407.691 	"/>
	<polygon fill="#A0AEC0" points="62.295,331.382 59.716,332.413 99.154,355.183 99.25,354.75 100.147,353.236 	"/>
	<polygon fill="#A0AEC0" points="17.99,346.388 18.426,348.908 80.183,384.563 80.25,384 80.879,382.696 	"/>
	<polygon fill="#A0AEC0" points="20,414.854 20,417.372 64.674,443.164 64.433,440.508 	"/>
	<polygon fill="#A0AEC0" points="95.435,332.868 94.488,334.59 106.938,341.777 107.25,341.25 107.989,340.116 	"/>
	<polygon fill="#A0AEC0" points="107.75,322.25 104.5,322.25 104.311,322.363 112.25,326.947 112.25,326 110.696,323.779 
		109.144,322.884 	"/>
	<polygon fill="#A0AEC0" points="35.25,268.25 35.019,268.746 45,274.509 45,273.5 44.513,271.958 36.772,267.489 	"/>
	<polygon fill="#A0AEC0" points="102.599,323.391 102,323.75 101.263,324.89 112.002,331.09 112.25,330 112.25,328.963 	"/>
	<polygon fill="#A0AEC0" points="22.452,463.407 76.649,494.699 76.5,494.25 75.661,491.858 22.392,461.104 	"/>
	<polygon fill="#A0AEC0" points="20,383.594 20,385.862 73.389,416.687 73.75,416.25 74.347,414.971 	"/>
	<polygon fill="#A0AEC0" points="22.921,481.576 89.58,520.063 85.75,516 85.437,515.401 22.862,479.273 	"/>
	<polygon fill="#A0AEC0" points="24.151,529.175 24.224,531.987 25.978,533 30.776,533 	"/>
	<polygon fill="#A0AEC0" points="23.034,485.928 100.836,530.848 94,524.75 93.756,524.491 22.974,483.625 	"/>
	<polygon fill="#A0AEC0" points="22.683,472.364 80.325,505.644 80.25,505.5 79.251,502.504 22.617,469.806 	"/>
	<polygon fill="#A0AEC0" points="20,392.418 20,395.189 68.483,423.181 69,422 69.723,421.125 	"/>
	<polygon fill="#A0AEC0" points="20,401.492 20,403.762 65.493,430.026 65.5,430 66.282,428.214 	"/>
	<polygon fill="#A0AEC0" points="20.98,431.3 66.319,457.477 65.75,455 65.738,454.871 20.592,428.807 	"/>
	<polygon fill="#A0AEC0" points="21.325,433.516 21.712,436.008 67.456,462.418 66.854,459.803 	"/>
	<polygon fill="#A0AEC0" points="46.243,311.021 46.091,308.666 31.219,300.079 30.935,302.184 	"/>
	<polygon fill="#A0AEC0" points="46.974,316.232 46.5,315 46.378,313.117 30.682,304.055 30.334,306.626 	"/>
	<polygon fill="#A0AEC0" points="80.808,324.423 77,324 76.47,324.188 87.979,330.832 85.636,327.211 	"/>
	<polygon fill="#A0AEC0" points="20,410.567 20,412.837 64.239,438.378 64.021,435.983 	"/>
	<polygon fill="#A0AEC0" points="49.143,321.771 49,321.5 47.972,318.826 29.534,308.181 28.325,309.752 	"/>
	<polygon fill="#A0AEC0" points="45.348,297.144 45.179,294.526 31.5,286.628 31.5,289.148 	"/>
	<polygon fill="#A0AEC0" points="89.426,335.953 88.763,333.302 74.301,324.952 72.75,325.5 72.002,325.894 	"/>
	<polygon fill="#A0AEC0" points="45,288.12 45,285.851 31.833,278.249 31.5,279.5 31.5,280.326 	"/>
	<polygon fill="#A0AEC0" points="45.669,302.118 45.483,299.239 31.5,291.166 31.5,293.938 	"/>
	<polygon fill="#A0AEC0" points="45.044,292.432 45,291.75 45,290.137 31.5,282.342 31.5,284.612 	"/>
	<polygon fill="#A0AEC0" points="32.94,274.099 32.3,276.502 45,283.834 45,281.061 	"/>
	<polygon fill="#A0AEC0" points="100.313,326.357 99.25,328 99.107,328.182 111.091,335.1 111.597,332.872 	"/>
	<polygon fill="#A0AEC0" points="34.276,270.336 33.5,272 33.406,272.352 45,279.045 45,276.527 	"/>
	<polygon fill="#A0AEC0" points="41.5,266.5 38.75,266.5 38.645,266.553 43.734,269.491 43.5,268.75 	"/>
	<polygon fill="#A0AEC0" points="90.833,338.782 89.5,339.5 89.5,338.014 70.174,326.855 68,328 67.712,328.206 102.931,348.539 
		104.154,346.474 	"/>
	<polygon fill="#A0AEC0" points="66.15,329.321 64.5,330.5 64.359,330.557 101.038,351.732 102.04,350.042 	"/>
	<polygon fill="#A0AEC0" points="93.646,336.121 92.75,337.75 92.64,337.81 105.045,344.971 106.047,343.28 	"/>
	<polygon fill="#A0AEC0" points="98.013,329.567 96.51,331.471 108.945,338.65 110.258,336.637 	"/>
	<polygon fill="#A0AEC0" points="18.387,304.014 16.5,301.75 12.125,299.25 8.384,298.239 	"/>
	<polygon fill="#A0AEC0" points="45.956,306.57 45.804,304.214 31.5,295.955 31.5,298 31.472,298.207 	"/>
	<polygon fill="#A0AEC0" points="20,365.443 20,368.217 78.562,402.027 79.048,399.535 	"/>
	<polygon fill="#A0AEC0" points="20,360.909 20,363.43 79.276,397.652 79.351,395.175 	"/>
	<polygon fill="#A0AEC0" points="19.735,356.47 20,358 20,358.892 79.411,393.192 79.479,390.963 	"/>
	<polygon fill="#A0AEC0" points="20,378.806 20,381.576 75.088,413.382 76.107,411.199 	"/>
	<polygon fill="#A0AEC0" points="20,397.207 20,399.476 66.986,426.603 67.779,424.792 	"/>
	<polygon fill="#A0AEC0" points="20,405.779 20,408.551 64.407,434.189 65.035,431.781 	"/>
	<polygon fill="#A0AEC0" points="20,387.88 20,390.4 70.851,419.759 72.261,418.053 	"/>
	<polygon fill="#A0AEC0" points="18.814,351.149 19.347,354.228 79.645,389.041 79.956,386.449 	"/>
	<polygon fill="#A0AEC0" points="20,370.232 20,372.505 77.81,405.881 78.208,403.839 	"/>
	<polygon fill="#A0AEC0" points="0,304.739 0,305 1.75,308 1.78,308.039 98.25,363.736 98.25,361.464 	"/>
	<polygon fill="#A0AEC0" points="4.602,311.683 7.75,315.75 7.769,315.783 97.195,367.413 97.831,365.509 	"/>
	<polygon fill="#A0AEC0" points="13.445,325.864 14.326,328.644 93.693,374.466 94.661,372.754 	"/>
	<polygon fill="#A0AEC0" points="52.498,328.246 51.5,326.25 50.668,324.669 25.593,310.191 24.25,310 22.75,309.25 21.627,307.902 
		4.476,298 3,298 1.883,299.023 	"/>
	<polygon fill="#A0AEC0" points="84.291,375.591 16.636,336.53 17.03,339.528 83.26,377.766 83.75,376.75 	"/>
	<polygon fill="#A0AEC0" points="17.317,341.712 17.641,344.167 81.641,381.118 82.498,379.344 	"/>
	<polygon fill="#A0AEC0" points="15.108,331.11 16.086,334.194 85.033,374.001 85.5,373 85.664,374.365 91.299,377.619 
		92.705,375.911 	"/>
	<polygon fill="#A0AEC0" points="85.924,376.533 86.25,379.25 89.75,379.5 90.173,378.986 	"/>
</g>
<g>
	<polygon fill="#A0AEC0" points="457.417,528.246 455.5,529.25 455.378,529.338 461.722,533 465.652,533 	"/>
	<polygon fill="#A0AEC0" points="461.445,526.284 460.75,526.5 459.249,527.286 469.145,533 473.076,533 	"/>
	<polygon fill="#A0AEC0" points="522.287,529.644 519,528 513.25,525.25 507.51,523.891 523.288,533 526,533 526,531.787 	"/>
	<polygon fill="#A0AEC0" points="453.816,530.453 451.865,531.847 453.863,533 458.229,533 	"/>
	<polygon fill="#A0AEC0" points="466.84,524.61 463.716,525.58 476.568,533 481.371,533 	"/>
	<polygon fill="#A0AEC0" points="450.303,532.962 450.25,533 450.369,533 	"/>
	<polygon fill="#A0AEC0" points="502.472,523 498.543,523 515.863,533 519.792,533 	"/>
	<polygon fill="#A0AEC0" points="472.893,523.57 469.376,524.059 484.862,533 489.225,533 	"/>
	<polygon fill="#A0AEC0" points="495.05,523 491.5,523 491.119,523 508.439,533 512.37,533 	"/>
	<polygon fill="#A0AEC0" points="487.623,523 482.823,523 500.145,533 504.943,533 	"/>
	<polygon fill="#A0AEC0" points="479.33,523 477,523 475.71,523.179 492.721,533 496.651,533 	"/>
</g>
<polygon id="Mão_direita_2_" display="none" fill="#3E51DD" points="450.25,533 455.5,529.25 460.75,526.5 468,524.25 477,523 
	491.5,523 503.75,523 513.25,525.25 519,528 526,531.5 526,533 "/>
<polygon id="Cabelo_2_" fill="#F7FAFC" points="263.56,112.25 262.52,114.2 254.83,123 248.67,117.17 247.17,121 246.5,124.17 
	245.33,126.67 243.33,128.33 240.88,128.17 239.67,126.67 237.83,120.33 234.33,105.67 233.17,100.5 233.17,96.67 231,93.83 
	228.17,91.5 224.17,88.17 220.83,83.67 218.75,79.83 217.67,75.5 217.17,71.17 218,66.83 218.75,64.33 210.83,64.83 208.67,62.17 
	203.83,57.17 199,53.33 195.67,50.67 192.83,50.67 189.33,52.5 185.67,54.5 180.5,57 183.5,53.33 177.5,53.5 170.83,55.17 
	168.83,57 161.17,61.33 162.83,59 170.83,53.5 168.17,53 162.83,52.5 153.83,51.67 149.67,51.67 146.17,53 134.83,53 130.67,54.17 
	127,55.33 123.17,56.67 119.5,56.67 118.33,58.5 113.17,64.67 106.67,72.83 104.5,77.5 102.48,84.33 102.17,90.33 102.48,101.33 
	102.79,120.42 102.17,148.5 98.3,148.81 97.75,148 93.75,140.25 86,134.5 86,125.75 99.75,122 98,113 98.5,107.25 97,98.5 96.25,91 
	95.75,81.75 95.25,74.25 95,67 95.25,60.25 94.75,53 93.95,48.81 92.78,45.92 94.5,44.25 97.5,40.5 99,37.75 102,34 104,30 108,26 
	110.25,22 113.75,19.25 117.75,14.5 123.5,10 129.25,7.25 133.5,5.75 139.25,5.75 144.75,4.5 149.25,4.75 153.25,4.25 156.25,2.5 
	159.75,2.75 167.25,1.25 173.5,1.75 179,1.25 181.25,0 184,1.5 188.75,2.75 192.25,0 193.25,2 199,3.25 201.75,7.25 206,7.25 
	209,10.25 213,10.25 216.75,12.5 220.75,15.25 225,18 229.75,21.25 235.5,22.5 233.25,24.75 235.75,26 238.75,28.75 244.25,32.5 
	246.25,37.5 249.75,39.5 252.75,40.75 248.75,45.75 249,50.25 253,51.75 253.75,54.25 256.75,59 257.5,62.5 255.75,64.25 
	255.75,66.5 257,71.75 259.25,78 260,88.25 260.25,96.5 259.75,104.75 260,113.75 262.75,112.25 "/>
<polygon id="Degradê_2_" fill="#CBD5E0" points="260.62,114.75 260.62,116.37 254.83,123 248.67,117.17 247.17,121 246.5,124.17 
	245.33,126.67 243.33,128.33 240.88,128.17 239.67,126.67 237.83,120.33 234.33,105.67 233.17,100.5 233.17,96.67 231,93.83 
	228.17,91.5 224.17,88.17 220.83,83.67 218.75,79.83 217.67,75.5 217.17,71.17 217.99,66.88 223.38,66.88 230.5,68 237.12,70.5 
	240.88,75.25 242.88,78.88 248.12,86 250.25,89.25 253.5,90.62 256.12,95.75 256.88,103 258.12,107.75 259.75,110.62 259.75,111.88 
	259.97,112.6 260,113.75 260.27,113.6 "/>
<polygon id="Óculo_2_" fill="#F7FAFC" points="101.375,153.375 103.5,156.875 105.5,159.625 109,162.125 111.5,163 116.375,163 
	122.25,163 128.25,161.875 132.5,160.75 137.125,158.875 141.75,156.125 145.875,153.375 149.5,149.75 151.125,146.25 
	152.25,141.375 153,131.875 153.625,127.25 155.25,125.375 157.625,124.625 160.25,124.625 162.5,126.5 166.25,132.875 
	172.125,140.875 174.875,143.813 180.625,146.875 184.5,148.125 191.25,148.625 199.125,147.75 206,146.5 211.5,143.813 
	215.875,141.375 220.5,137.25 222.5,133.375 223.25,127.375 223.25,118 223.25,113.625 223.25,111.25 226.25,107.5 226.25,103.625 
	226.25,100.5 224.125,99.5 210,98.875 201.125,98.875 192.5,100 185.875,101.375 177.5,104 168.75,107.375 161.625,112.375 
	156.5,114 148,114.5 139.75,113.125 133.375,111.875 128.125,111.375 123.75,111.625 118.75,113.125 111.75,116 104.375,119.5 
	99.875,122.125 86.25,125.875 86.25,134.686 94.125,140.375 "/>
<polygon id="Perna_Óculos_2_" fill="#F7FAFC" points="223.417,115.917 258.667,119.583 260,117.25 261.375,115.458 263,113.667 
	225.875,100.5 219.875,106.5 218.75,111.75 "/>
<g display="none">
	
		<rect x="-90.206" y="69.691" transform="matrix(0.866 0.5 -0.5 0.866 83.485 -170.4428)" display="inline" fill="#FFFFFF" width="900" height="1.746"/>
	
		<rect x="-92.28" y="73.282" transform="matrix(0.866 0.5 -0.5 0.866 85.0028 -168.9249)" display="inline" fill="#FFFFFF" width="900" height="1.747"/>
	
		<rect x="-94.136" y="76.496" transform="matrix(0.866 0.5 -0.5 0.866 86.3618 -167.5663)" display="inline" fill="#FFFFFF" width="899.999" height="1.747"/>
	
		<rect x="-96.1" y="79.899" transform="matrix(0.866 0.5 -0.5 0.866 87.7996 -166.1284)" display="inline" fill="#FFFFFF" width="900" height="1.747"/>
	
		<rect x="-98.173" y="83.491" transform="matrix(0.866 0.5 -0.5 0.866 89.3176 -164.6106)" display="inline" fill="#FFFFFF" width="900" height="1.746"/>
	
		<rect x="-100.03" y="86.706" transform="matrix(0.866 0.5 -0.5 0.866 90.6764 -163.2516)" display="inline" fill="#FFFFFF" width="900" height="1.747"/>
	
		<rect x="-101.886" y="89.92" transform="matrix(0.866 0.5 -0.5 0.866 92.0354 -161.893)" display="inline" fill="#FFFFFF" width="899.999" height="1.747"/>
	
		<rect x="-103.959" y="93.511" transform="matrix(0.866 0.5 -0.5 0.866 93.5528 -160.3749)" display="inline" fill="#FFFFFF" width="900" height="1.747"/>
	
		<rect x="-105.815" y="96.726" transform="matrix(0.866 0.5 -0.5 0.866 94.9116 -159.0161)" display="inline" fill="#FFFFFF" width="899.999" height="1.747"/>
	
		<rect x="-107.78" y="100.128" transform="matrix(0.866 0.5 -0.5 0.866 96.3497 -157.5783)" display="inline" fill="#FFFFFF" width="900" height="1.747"/>
	
		<rect x="-109.853" y="103.72" transform="matrix(0.866 0.5 -0.5 0.866 97.8677 -156.0605)" display="inline" fill="#FFFFFF" width="900" height="1.747"/>
	
		<rect x="-111.709" y="106.935" transform="matrix(0.866 0.5 -0.5 0.866 99.2264 -154.7016)" display="inline" fill="#FFFFFF" width="900" height="1.747"/>
	
		<rect x="-113.565" y="110.149" transform="matrix(0.866 0.5 -0.5 0.866 100.5849 -153.3432)" display="inline" fill="#FFFFFF" width="900" height="1.747"/>
	
		<rect x="-115.639" y="113.74" transform="matrix(0.866 0.5 -0.5 0.866 102.1029 -151.8251)" display="inline" fill="#FFFFFF" width="899.999" height="1.747"/>
	
		<rect x="-117.495" y="116.956" transform="matrix(0.866 0.5 -0.5 0.866 103.4617 -150.4665)" display="inline" fill="#FFFFFF" width="900" height="1.747"/>
	
		<rect x="-119.459" y="120.358" transform="matrix(0.866 0.5 -0.5 0.866 104.8996 -149.0284)" display="inline" fill="#FFFFFF" width="899.999" height="1.747"/>
	
		<rect x="-121.533" y="123.949" transform="matrix(0.866 0.5 -0.5 0.866 106.4176 -147.5106)" display="inline" fill="#FFFFFF" width="900" height="1.747"/>
	
		<rect x="-123.389" y="127.164" transform="matrix(0.866 0.5 -0.5 0.866 107.7765 -146.1518)" display="inline" fill="#FFFFFF" width="899.999" height="1.747"/>
	
		<rect x="-125.245" y="130.379" transform="matrix(0.866 0.5 -0.5 0.866 109.1352 -144.7932)" display="inline" fill="#FFFFFF" width="900" height="1.747"/>
	
		<rect x="-127.318" y="133.97" transform="matrix(0.866 0.5 -0.5 0.866 110.6529 -143.2751)" display="inline" fill="#FFFFFF" width="900" height="1.747"/>
	
		<rect x="-129.174" y="137.185" transform="matrix(0.866 0.5 -0.5 0.866 112.0114 -141.9163)" display="inline" fill="#FFFFFF" width="900" height="1.746"/>
	
		<rect x="-131.139" y="140.587" transform="matrix(0.866 0.5 -0.5 0.866 113.4495 -140.4784)" display="inline" fill="#FFFFFF" width="900" height="1.747"/>
	
		<rect x="-133.212" y="144.179" transform="matrix(0.866 0.5 -0.5 0.866 114.9676 -138.9604)" display="inline" fill="#FFFFFF" width="900" height="1.747"/>
	
		<rect x="-135.068" y="147.394" transform="matrix(0.866 0.5 -0.5 0.866 116.3265 -137.6021)" display="inline" fill="#FFFFFF" width="900" height="1.747"/>
	
		<rect x="-136.924" y="150.609" transform="matrix(0.866 0.5 -0.5 0.866 117.685 -136.243)" display="inline" fill="#FFFFFF" width="900" height="1.746"/>
	
		<rect x="-138.997" y="154.2" transform="matrix(0.866 0.5 -0.5 0.866 119.2028 -134.7252)" display="inline" fill="#FFFFFF" width="900" height="1.747"/>
	
		<rect x="-140.854" y="157.415" transform="matrix(0.866 0.5 -0.5 0.866 120.562 -133.3663)" display="inline" fill="#FFFFFF" width="900" height="1.747"/>
	
		<rect x="-142.818" y="160.817" transform="matrix(0.866 0.5 -0.5 0.866 121.9996 -131.9286)" display="inline" fill="#FFFFFF" width="900" height="1.747"/>
	
		<rect x="-144.892" y="164.408" transform="matrix(0.866 0.5 -0.5 0.866 123.5176 -130.4104)" display="inline" fill="#FFFFFF" width="899.999" height="1.747"/>
	
		<rect x="-146.747" y="167.624" transform="matrix(0.866 0.5 -0.5 0.866 124.8764 -129.0518)" display="inline" fill="#FFFFFF" width="900" height="1.747"/>
	
		<rect x="-148.604" y="170.838" transform="matrix(0.866 0.5 -0.5 0.866 126.2352 -127.693)" display="inline" fill="#FFFFFF" width="900" height="1.747"/>
	
		<rect x="-150.677" y="174.43" transform="matrix(0.866 0.5 -0.5 0.866 127.7533 -126.1752)" display="inline" fill="#FFFFFF" width="900" height="1.747"/>
	
		<rect x="-152.534" y="177.645" transform="matrix(0.866 0.5 -0.5 0.866 129.112 -124.8163)" display="inline" fill="#FFFFFF" width="900" height="1.747"/>
	
		<rect x="-154.497" y="181.046" transform="matrix(0.866 0.5 -0.5 0.866 130.5497 -123.3785)" display="inline" fill="#FFFFFF" width="900" height="1.747"/>
	
		<rect x="-156.571" y="184.638" transform="matrix(0.866 0.5 -0.5 0.866 132.0677 -121.8603)" display="inline" fill="#FFFFFF" width="899.999" height="1.747"/>
	
		<rect x="-158.427" y="187.853" transform="matrix(0.866 0.5 -0.5 0.866 133.4264 -120.5018)" display="inline" fill="#FFFFFF" width="900" height="1.747"/>
	
		<rect x="-160.283" y="191.067" transform="matrix(0.866 0.5 -0.5 0.866 134.7852 -119.143)" display="inline" fill="#FFFFFF" width="899.999" height="1.747"/>
	
		<rect x="-162.357" y="194.659" transform="matrix(0.866 0.5 -0.5 0.866 136.3027 -117.6252)" display="inline" fill="#FFFFFF" width="900" height="1.747"/>
	
		<rect x="-164.213" y="197.873" transform="matrix(0.866 0.5 -0.5 0.866 137.6616 -116.2664)" display="inline" fill="#FFFFFF" width="900" height="1.747"/>
	
		<rect x="-166.177" y="201.276" transform="matrix(0.866 0.5 -0.5 0.866 139.0995 -114.8285)" display="inline" fill="#FFFFFF" width="900" height="1.747"/>
	
		<rect x="-168.25" y="204.867" transform="matrix(0.866 0.5 -0.5 0.866 140.6176 -113.3107)" display="inline" fill="#FFFFFF" width="900" height="1.747"/>
	
		<rect x="-170.107" y="208.083" transform="matrix(0.866 0.5 -0.5 0.866 141.9762 -111.9517)" display="inline" fill="#FFFFFF" width="900" height="1.746"/>
	
		<rect x="-171.962" y="211.297" transform="matrix(0.866 0.5 -0.5 0.866 143.3352 -110.5934)" display="inline" fill="#FFFFFF" width="900" height="1.747"/>
	
		<rect x="-174.036" y="214.888" transform="matrix(0.866 0.5 -0.5 0.866 144.853 -109.0751)" display="inline" fill="#FFFFFF" width="899.999" height="1.747"/>
	
		<rect x="-175.892" y="218.103" transform="matrix(0.866 0.5 -0.5 0.866 146.2113 -107.7166)" display="inline" fill="#FFFFFF" width="900" height="1.746"/>
	
		<rect x="-177.856" y="221.505" transform="matrix(0.866 0.5 -0.5 0.866 147.6496 -106.2784)" display="inline" fill="#FFFFFF" width="899.999" height="1.747"/>
	
		<rect x="-179.93" y="225.097" transform="matrix(0.866 0.5 -0.5 0.866 149.1676 -104.7606)" display="inline" fill="#FFFFFF" width="900" height="1.747"/>
	
		<rect x="-181.786" y="228.312" transform="matrix(0.866 0.5 -0.5 0.866 150.5266 -103.4018)" display="inline" fill="#FFFFFF" width="899.999" height="1.747"/>
	
		<rect x="-183.642" y="231.527" transform="matrix(0.866 0.5 -0.5 0.866 151.885 -102.0432)" display="inline" fill="#FFFFFF" width="900" height="1.746"/>
	
		<rect x="-185.606" y="234.928" transform="matrix(0.866 0.5 -0.5 0.866 153.3227 -100.605)" display="inline" fill="#FFFFFF" width="899.999" height="1.747"/>
	
		<rect x="-187.68" y="238.52" transform="matrix(0.866 0.5 -0.5 0.866 154.8408 -99.0872)" display="inline" fill="#FFFFFF" width="900" height="1.747"/>
	
		<rect x="-189.536" y="241.735" transform="matrix(0.866 0.5 -0.5 0.866 156.1996 -97.7284)" display="inline" fill="#FFFFFF" width="899.999" height="1.747"/>
	
		<rect x="-191.392" y="244.95" transform="matrix(0.866 0.5 -0.5 0.866 157.5582 -96.3698)" display="inline" fill="#FFFFFF" width="900" height="1.747"/>
	
		<rect x="-193.466" y="248.54" transform="matrix(0.866 0.5 -0.5 0.866 159.0761 -94.8519)" display="inline" fill="#FFFFFF" width="900" height="1.748"/>
	
		<rect x="-195.322" y="251.756" transform="matrix(0.866 0.5 -0.5 0.866 160.4347 -93.4931)" display="inline" fill="#FFFFFF" width="900" height="1.747"/>
	
		<rect x="-197.286" y="255.159" transform="matrix(0.866 0.5 -0.5 0.866 161.8729 -92.0549)" display="inline" fill="#FFFFFF" width="900" height="1.746"/>
	
		<rect x="-199.36" y="258.75" transform="matrix(0.866 0.5 -0.5 0.866 163.3909 -90.5371)" display="inline" fill="#FFFFFF" width="900" height="1.746"/>
	
		<rect x="-201.216" y="261.965" transform="matrix(0.866 0.5 -0.5 0.866 164.7497 -89.1781)" display="inline" fill="#FFFFFF" width="900" height="1.746"/>
	
		<rect x="-203.072" y="265.18" transform="matrix(0.866 0.5 -0.5 0.866 166.1086 -87.8198)" display="inline" fill="#FFFFFF" width="900" height="1.746"/>
	
		<rect x="-205.146" y="268.772" transform="matrix(0.866 0.5 -0.5 0.866 167.6266 -86.3015)" display="inline" fill="#FFFFFF" width="900" height="1.746"/>
	
		<rect x="-207.001" y="271.987" transform="matrix(0.866 0.5 -0.5 0.866 168.9854 -84.943)" display="inline" fill="#FFFFFF" width="900" height="1.746"/>
	
		<rect x="-208.966" y="275.387" transform="matrix(0.866 0.5 -0.5 0.866 170.4228 -83.5051)" display="inline" fill="#FFFFFF" width="900" height="1.748"/>
	
		<rect x="-211.039" y="278.979" transform="matrix(0.866 0.5 -0.5 0.866 171.9408 -81.9873)" display="inline" fill="#FFFFFF" width="900" height="1.747"/>
	
		<rect x="-212.895" y="282.194" transform="matrix(0.866 0.5 -0.5 0.866 173.2996 -80.6286)" display="inline" fill="#FFFFFF" width="900" height="1.747"/>
	
		<rect x="-214.751" y="285.408" transform="matrix(0.866 0.5 -0.5 0.866 174.6585 -79.2697)" display="inline" fill="#FFFFFF" width="899.999" height="1.747"/>
	
		<rect x="-216.825" y="289" transform="matrix(0.866 0.5 -0.5 0.866 176.1766 -77.7514)" display="inline" fill="#FFFFFF" width="899.999" height="1.748"/>
	
		<rect x="-218.681" y="292.216" transform="matrix(0.866 0.5 -0.5 0.866 177.5349 -76.3929)" display="inline" fill="#FFFFFF" width="900" height="1.747"/>
	
		<rect x="-220.645" y="295.619" transform="matrix(0.866 0.5 -0.5 0.866 178.9729 -74.9549)" display="inline" fill="#FFFFFF" width="900" height="1.744"/>
	
		<rect x="-222.719" y="299.211" transform="matrix(0.866 0.5 -0.5 0.866 180.4913 -73.4369)" display="inline" fill="#FFFFFF" width="899.999" height="1.744"/>
	
		<rect x="-224.575" y="302.425" transform="matrix(0.866 0.5 -0.5 0.866 181.85 -72.0782)" display="inline" fill="#FFFFFF" width="900" height="1.745"/>
	
		<rect x="-226.431" y="305.637" transform="matrix(0.866 0.5 -0.5 0.866 183.2081 -70.7199)" display="inline" fill="#FFFFFF" width="900" height="1.748"/>
	
		<rect x="-228.504" y="309.229" transform="matrix(0.866 0.5 -0.5 0.866 184.726 -69.2022)" display="inline" fill="#FFFFFF" width="900" height="1.747"/>
	
		<rect x="-230.36" y="312.444" transform="matrix(0.866 0.5 -0.5 0.866 186.0848 -67.8432)" display="inline" fill="#FFFFFF" width="900" height="1.748"/>
	
		<rect x="-232.325" y="315.847" transform="matrix(0.866 0.5 -0.5 0.866 187.5232 -66.4048)" display="inline" fill="#FFFFFF" width="900" height="1.748"/>
	
		<rect x="-234.398" y="319.439" transform="matrix(0.866 0.5 -0.5 0.866 189.0411 -64.8871)" display="inline" fill="#FFFFFF" width="900" height="1.747"/>
	
		<rect x="-236.254" y="322.654" transform="matrix(0.866 0.5 -0.5 0.866 190.4 -63.5284)" display="inline" fill="#FFFFFF" width="900" height="1.747"/>
	
		<rect x="-238.11" y="325.868" transform="matrix(0.866 0.5 -0.5 0.866 191.7585 -62.1695)" display="inline" fill="#FFFFFF" width="899.999" height="1.748"/>
	
		<rect x="-240.184" y="329.46" transform="matrix(0.866 0.5 -0.5 0.866 193.2761 -60.6517)" display="inline" fill="#FFFFFF" width="900" height="1.747"/>
	
		<rect x="-242.04" y="332.674" transform="matrix(0.866 0.5 -0.5 0.866 194.6355 -59.2927)" display="inline" fill="#FFFFFF" width="899.999" height="1.748"/>
	
		<rect x="-244.004" y="336.076" transform="matrix(0.866 0.5 -0.5 0.866 196.0725 -57.8554)" display="inline" fill="#FFFFFF" width="900" height="1.747"/>
	
		<rect x="-246.077" y="339.667" transform="matrix(0.866 0.5 -0.5 0.866 197.5905 -56.3374)" display="inline" fill="#FFFFFF" width="899.999" height="1.748"/>
	
		<rect x="-247.933" y="342.882" transform="matrix(0.866 0.5 -0.5 0.866 198.9495 -54.9786)" display="inline" fill="#FFFFFF" width="900" height="1.747"/>
	
		<rect x="-250.01" y="346.479" transform="matrix(0.866 0.5 -0.5 0.866 200.4694 -53.4585)" display="inline" fill="#FFFFFF" width="900" height="1.747"/>
	
		<rect x="-251.866" y="349.694" transform="matrix(0.866 0.5 -0.5 0.866 201.8285 -52.0995)" display="inline" fill="#FFFFFF" width="899.999" height="1.747"/>
	
		<rect x="-253.723" y="352.909" transform="matrix(0.866 0.5 -0.5 0.866 203.1872 -50.7408)" display="inline" fill="#FFFFFF" width="900" height="1.748"/>
	
		<rect x="-255.796" y="356.5" transform="matrix(0.866 0.5 -0.5 0.866 204.7053 -49.2228)" display="inline" fill="#FFFFFF" width="899.999" height="1.747"/>
	
		<rect x="-257.652" y="359.715" transform="matrix(0.866 0.5 -0.5 0.866 206.0643 -47.864)" display="inline" fill="#FFFFFF" width="900" height="1.748"/>
	
		<rect x="-259.616" y="363.117" transform="matrix(0.866 0.5 -0.5 0.866 207.502 -46.4264)" display="inline" fill="#FFFFFF" width="899.999" height="1.746"/>
	
		<rect x="-261.69" y="366.709" transform="matrix(0.866 0.5 -0.5 0.866 209.0199 -44.9083)" display="inline" fill="#FFFFFF" width="900" height="1.746"/>
	
		<rect x="-263.545" y="369.924" transform="matrix(0.866 0.5 -0.5 0.866 210.3783 -43.5497)" display="inline" fill="#FFFFFF" width="899.999" height="1.746"/>
	
		<rect x="-265.402" y="373.138" transform="matrix(0.866 0.5 -0.5 0.866 211.7369 -42.1911)" display="inline" fill="#FFFFFF" width="900" height="1.746"/>
	
		<rect x="-267.366" y="376.54" transform="matrix(0.866 0.5 -0.5 0.866 213.1753 -40.7527)" display="inline" fill="#FFFFFF" width="899.999" height="1.747"/>
	
		<rect x="-269.44" y="380.132" transform="matrix(0.866 0.5 -0.5 0.866 214.6932 -39.2349)" display="inline" fill="#FFFFFF" width="900" height="1.747"/>
	
		<rect x="-271.296" y="383.347" transform="matrix(0.866 0.5 -0.5 0.866 216.0521 -37.876)" display="inline" fill="#FFFFFF" width="899.999" height="1.747"/>
	
		<rect x="-273.152" y="386.562" transform="matrix(0.866 0.5 -0.5 0.866 217.4108 -36.5176)" display="inline" fill="#FFFFFF" width="900" height="1.747"/>
	
		<rect x="-275.226" y="390.153" transform="matrix(0.866 0.5 -0.5 0.866 218.929 -34.9992)" display="inline" fill="#FFFFFF" width="899.999" height="1.747"/>
	
		<rect x="-277.081" y="393.368" transform="matrix(0.866 0.5 -0.5 0.866 220.287 -33.6409)" display="inline" fill="#FFFFFF" width="900" height="1.747"/>
	
		<rect x="-279.046" y="396.771" transform="matrix(0.866 0.5 -0.5 0.866 221.725 -32.2029)" display="inline" fill="#FFFFFF" width="900" height="1.745"/>
	
		<rect x="-281.119" y="400.363" transform="matrix(0.866 0.5 -0.5 0.866 223.2431 -30.6849)" display="inline" fill="#FFFFFF" width="899.999" height="1.744"/>
	
		<rect x="-282.975" y="403.578" transform="matrix(0.866 0.5 -0.5 0.866 224.6019 -29.3262)" display="inline" fill="#FFFFFF" width="900" height="1.745"/>
	
		<rect x="-284.831" y="406.792" transform="matrix(0.866 0.5 -0.5 0.866 225.9607 -27.9675)" display="inline" fill="#FFFFFF" width="900" height="1.745"/>
	
		<rect x="-286.905" y="410.384" transform="matrix(0.866 0.5 -0.5 0.866 227.4788 -26.4494)" display="inline" fill="#FFFFFF" width="900" height="1.745"/>
	
		<rect x="-288.761" y="413.599" transform="matrix(0.866 0.5 -0.5 0.866 228.8377 -25.0907)" display="inline" fill="#FFFFFF" width="900" height="1.746"/>
	
		<rect x="-290.725" y="416.999" transform="matrix(0.866 0.5 -0.5 0.866 230.2752 -23.6528)" display="inline" fill="#FFFFFF" width="900" height="1.748"/>
	
		<rect x="-292.799" y="420.591" transform="matrix(0.866 0.5 -0.5 0.866 231.7932 -22.135)" display="inline" fill="#FFFFFF" width="900" height="1.747"/>
	
		<rect x="-294.655" y="423.806" transform="matrix(0.866 0.5 -0.5 0.866 233.152 -20.7761)" display="inline" fill="#FFFFFF" width="900" height="1.748"/>
	
		<rect x="-296.511" y="427.021" transform="matrix(0.866 0.5 -0.5 0.866 234.5104 -19.4174)" display="inline" fill="#FFFFFF" width="900" height="1.747"/>
	
		<rect x="-298.585" y="430.612" transform="matrix(0.866 0.5 -0.5 0.866 236.0289 -17.8993)" display="inline" fill="#FFFFFF" width="900" height="1.748"/>
	
		<rect x="-300.441" y="433.828" transform="matrix(0.866 0.5 -0.5 0.866 237.3875 -16.5407)" display="inline" fill="#FFFFFF" width="900" height="1.747"/>
	
		<rect x="-302.405" y="437.231" transform="matrix(0.866 0.5 -0.5 0.866 238.8254 -15.1027)" display="inline" fill="#FFFFFF" width="900" height="1.744"/>
	
		<rect x="-304.478" y="440.822" transform="matrix(0.866 0.5 -0.5 0.866 240.3433 -13.5849)" display="inline" fill="#FFFFFF" width="900" height="1.745"/>
	
		<rect x="-306.335" y="444.038" transform="matrix(0.866 0.5 -0.5 0.866 241.7021 -12.226)" display="inline" fill="#FFFFFF" width="900" height="1.744"/>
	
		<rect x="-308.19" y="447.249" transform="matrix(0.866 0.5 -0.5 0.866 243.0603 -10.8677)" display="inline" fill="#FFFFFF" width="900" height="1.748"/>
	
		<rect x="-310.264" y="450.841" transform="matrix(0.866 0.5 -0.5 0.866 244.5783 -9.3499)" display="inline" fill="#FFFFFF" width="900" height="1.747"/>
	
		<rect x="-312.12" y="454.056" transform="matrix(0.866 0.5 -0.5 0.866 245.9372 -7.9912)" display="inline" fill="#FFFFFF" width="900" height="1.747"/>
	
		<rect x="-314.084" y="457.459" transform="matrix(0.866 0.5 -0.5 0.866 247.3756 -6.5528)" display="inline" fill="#FFFFFF" width="900" height="1.747"/>
	
		<rect x="-316.158" y="461.051" transform="matrix(0.866 0.5 -0.5 0.866 248.8937 -5.0347)" display="inline" fill="#FFFFFF" width="900" height="1.747"/>
	
		<rect x="-318.014" y="464.265" transform="matrix(0.866 0.5 -0.5 0.866 250.2516 -3.6763)" display="inline" fill="#FFFFFF" width="900" height="1.747"/>
	
		<rect x="-319.87" y="467.48" transform="matrix(0.866 0.5 -0.5 0.866 251.6111 -2.3172)" display="inline" fill="#FFFFFF" width="899.999" height="1.748"/>
	
		<rect x="-321.944" y="471.072" transform="matrix(0.866 0.5 -0.5 0.866 253.1287 -0.7994)" display="inline" fill="#FFFFFF" width="900" height="1.747"/>
	
		<rect x="-323.8" y="474.286" transform="matrix(0.866 0.5 -0.5 0.866 254.4878 0.5596)" display="inline" fill="#FFFFFF" width="899.999" height="1.748"/>
	
		<rect x="-325.764" y="477.688" transform="matrix(0.866 0.5 -0.5 0.866 255.9251 1.9969)" display="inline" fill="#FFFFFF" width="900" height="1.747"/>
	
		<rect x="-327.837" y="481.279" transform="matrix(0.866 0.5 -0.5 0.866 257.4431 3.5149)" display="inline" fill="#FFFFFF" width="899.999" height="1.748"/>
	
		<rect x="-329.693" y="484.493" transform="matrix(0.866 0.5 -0.5 0.866 258.8015 4.8735)" display="inline" fill="#FFFFFF" width="900" height="1.748"/>
	
		<rect x="-331.549" y="487.709" transform="matrix(0.866 0.5 -0.5 0.866 260.1608 6.2323)" display="inline" fill="#FFFFFF" width="900" height="1.747"/>
	
		<rect x="-333.405" y="490.923" transform="matrix(0.866 0.5 -0.5 0.866 261.5187 7.591)" display="inline" fill="#FFFFFF" width="899.999" height="1.746"/>
	
		<rect x="-335.262" y="494.138" transform="matrix(0.866 0.5 -0.5 0.866 262.8781 8.9499)" display="inline" fill="#FFFFFF" width="900" height="1.749"/>
	
		<rect x="-337.335" y="497.729" transform="matrix(0.866 0.5 -0.5 0.866 264.396 10.4679)" display="inline" fill="#FFFFFF" width="899.999" height="1.747"/>
	
		<rect x="-339.191" y="500.944" transform="matrix(0.866 0.5 -0.5 0.866 265.7547 11.8266)" display="inline" fill="#FFFFFF" width="900" height="1.748"/>
	
		<rect x="-341.155" y="504.347" transform="matrix(0.866 0.5 -0.5 0.866 267.1928 13.2644)" display="inline" fill="#FFFFFF" width="899.999" height="1.747"/>
	
		<rect x="-343.229" y="507.939" transform="matrix(0.866 0.5 -0.5 0.866 268.7106 14.7824)" display="inline" fill="#FFFFFF" width="900" height="1.747"/>
	
		<rect x="-345.085" y="511.153" transform="matrix(0.866 0.5 -0.5 0.866 270.0699 16.1412)" display="inline" fill="#FFFFFF" width="900" height="1.747"/>
	
		<rect x="-346.941" y="514.367" transform="matrix(0.866 0.5 -0.5 0.866 271.4277 17.4996)" display="inline" fill="#FFFFFF" width="900" height="1.747"/>
	
		<rect x="-348.906" y="517.77" transform="matrix(0.866 0.5 -0.5 0.866 272.8668 18.9383)" display="inline" fill="#FFFFFF" width="900" height="1.748"/>
	
		<rect x="-350.979" y="521.361" transform="matrix(0.866 0.5 -0.5 0.866 274.384 20.4555)" display="inline" fill="#FFFFFF" width="900" height="1.748"/>
	
		<rect x="-352.835" y="524.576" transform="matrix(0.866 0.5 -0.5 0.866 275.743 21.8148)" display="inline" fill="#FFFFFF" width="899.999" height="1.748"/>
	
		<rect x="-354.691" y="527.791" transform="matrix(0.866 0.5 -0.5 0.866 277.1013 23.1731)" display="inline" fill="#FFFFFF" width="900" height="1.747"/>
	
		<rect x="-356.765" y="531.383" transform="matrix(0.866 0.5 -0.5 0.866 278.6196 24.6915)" display="inline" fill="#FFFFFF" width="899.999" height="1.747"/>
	
		<rect x="-358.621" y="534.598" transform="matrix(0.866 0.5 -0.5 0.866 279.9781 26.0498)" display="inline" fill="#FFFFFF" width="900" height="1.747"/>
	
		<rect x="-360.585" y="538.001" transform="matrix(0.866 0.5 -0.5 0.866 281.4161 27.4879)" display="inline" fill="#FFFFFF" width="900" height="1.744"/>
	
		<rect x="-362.658" y="541.593" transform="matrix(0.866 0.5 -0.5 0.866 282.9342 29.0059)" display="inline" fill="#FFFFFF" width="899.999" height="1.744"/>
	
		<rect x="-364.515" y="544.807" transform="matrix(0.866 0.5 -0.5 0.866 284.2925 30.3645)" display="inline" fill="#FFFFFF" width="900" height="1.744"/>
	
		<rect x="-366.371" y="548.022" transform="matrix(0.866 0.5 -0.5 0.866 285.6515 31.7232)" display="inline" fill="#FFFFFF" width="900" height="1.746"/>
	
		<rect x="-368.444" y="551.614" transform="matrix(0.866 0.5 -0.5 0.866 287.1693 33.2413)" display="inline" fill="#FFFFFF" width="900" height="1.744"/>
	
		<rect x="-370.3" y="554.828" transform="matrix(0.866 0.5 -0.5 0.866 288.5283 34.6)" display="inline" fill="#FFFFFF" width="900" height="1.746"/>
	
		<rect x="-372.265" y="558.229" transform="matrix(0.866 0.5 -0.5 0.866 289.9658 36.0378)" display="inline" fill="#FFFFFF" width="900" height="1.748"/>
	
		<rect x="-374.338" y="561.82" transform="matrix(0.866 0.5 -0.5 0.866 291.4839 37.5557)" display="inline" fill="#FFFFFF" width="900" height="1.748"/>
	
		<rect x="-376.194" y="565.035" transform="matrix(0.866 0.5 -0.5 0.866 292.8427 38.9146)" display="inline" fill="#FFFFFF" width="900" height="1.748"/>
	
		<rect x="-378.05" y="568.251" transform="matrix(0.866 0.5 -0.5 0.866 294.2017 40.2734)" display="inline" fill="#FFFFFF" width="900" height="1.747"/>
	
		<rect x="-380.124" y="571.842" transform="matrix(0.866 0.5 -0.5 0.866 295.7195 41.7914)" display="inline" fill="#FFFFFF" width="900" height="1.748"/>
	
		<rect x="-381.98" y="575.057" transform="matrix(0.866 0.5 -0.5 0.866 297.0783 43.1501)" display="inline" fill="#FFFFFF" width="900" height="1.747"/>
	
		<rect x="-383.944" y="578.46" transform="matrix(0.866 0.5 -0.5 0.866 298.5161 44.588)" display="inline" fill="#FFFFFF" width="900" height="1.744"/>
	
		<rect x="-386.018" y="582.051" transform="matrix(0.866 0.5 -0.5 0.866 300.0339 46.1058)" display="inline" fill="#FFFFFF" width="900" height="1.745"/>
	
		<rect x="-387.874" y="585.266" transform="matrix(0.866 0.5 -0.5 0.866 301.3929 47.4648)" display="inline" fill="#FFFFFF" width="899.999" height="1.746"/>
	
		<rect x="-389.729" y="588.479" transform="matrix(0.866 0.5 -0.5 0.866 302.751 48.8228)" display="inline" fill="#FFFFFF" width="900" height="1.747"/>
	
		<rect x="-391.803" y="592.07" transform="matrix(0.866 0.5 -0.5 0.866 304.2691 50.3409)" display="inline" fill="#FFFFFF" width="900" height="1.748"/>
	
		<rect x="-393.659" y="595.285" transform="matrix(0.866 0.5 -0.5 0.866 305.6277 51.6995)" display="inline" fill="#FFFFFF" width="900" height="1.747"/>
	
		<rect x="-395.624" y="598.689" transform="matrix(0.866 0.5 -0.5 0.866 307.0661 53.1379)" display="inline" fill="#FFFFFF" width="900" height="1.747"/>
	
		<rect x="-397.697" y="602.28" transform="matrix(0.866 0.5 -0.5 0.866 308.5841 54.6559)" display="inline" fill="#FFFFFF" width="900" height="1.747"/>
	
		<rect x="-399.553" y="605.495" transform="matrix(0.866 0.5 -0.5 0.866 309.9429 56.0146)" display="inline" fill="#FFFFFF" width="900" height="1.747"/>
	
		<rect x="-401.409" y="608.709" transform="matrix(0.866 0.5 -0.5 0.866 311.3017 57.3736)" display="inline" fill="#FFFFFF" width="899.999" height="1.748"/>
	
		<rect x="-403.483" y="612.301" transform="matrix(0.866 0.5 -0.5 0.866 312.8195 58.8913)" display="inline" fill="#FFFFFF" width="900" height="1.747"/>
	
		<rect x="-405.339" y="615.516" transform="matrix(0.866 0.5 -0.5 0.866 314.1785 60.2504)" display="inline" fill="#FFFFFF" width="899.999" height="1.748"/>
	
		<rect x="-407.303" y="618.917" transform="matrix(0.866 0.5 -0.5 0.866 315.6158 61.6876)" display="inline" fill="#FFFFFF" width="900" height="1.748"/>
	
		<rect x="-409.376" y="622.509" transform="matrix(0.866 0.5 -0.5 0.866 317.134 63.2057)" display="inline" fill="#FFFFFF" width="899.999" height="1.747"/>
	
		<rect x="-411.232" y="625.723" transform="matrix(0.866 0.5 -0.5 0.866 318.4922 64.5643)" display="inline" fill="#FFFFFF" width="900" height="1.748"/>
</g>
</svg>
