<?xml version="1.0" encoding="utf-8"?>
<!-- Generator: Adobe Illustrator 16.0.3, SVG Export Plug-In . SVG Version: 6.00 Build 0)  -->
<!DOCTYPE svg PUBLIC "-//W3C//DTD SVG 1.1//EN" "http://www.w3.org/Graphics/SVG/1.1/DTD/svg11.dtd">
<svg version="1.1" id="Layer_1" xmlns="http://www.w3.org/2000/svg" xmlns:xlink="http://www.w3.org/1999/xlink" x="0px" y="0px"
	 width="200px" height="200px" viewBox="0 0 200 200" enable-background="new 0 0 200 200" xml:space="preserve">
<path fill="#FFFFFF" d="M130.195,191.216l-35.494-35.493l24.105-24.105l8.498,8.499l-14.453,14.452l5.898,5.899l11.781-11.78
	l7.898,7.898l-11.781,11.78l13.199,13.198L130.195,191.216z"/>
<path fill="#FFFFFF" d="M155.152,118.466c-1.59,0.39-3.146,0.88-4.668,1.47c-1.291,0.49-2.664,1.114-4.119,1.869
	c-1.456,0.756-2.713,1.662-3.768,2.717c-0.858,0.858-1.41,1.678-1.654,2.455c-0.244,0.778-0.051,1.483,0.582,2.116
	c0.468,0.468,0.998,0.701,1.597,0.704c0.597,0.003,1.301-0.15,2.11-0.462c0.812-0.312,1.738-0.753,2.779-1.33
	c1.041-0.575,2.241-1.207,3.598-1.897c2.117-1.116,4.127-2.026,6.029-2.73c1.903-0.703,3.727-1.107,5.467-1.216
	c1.74-0.106,3.441,0.175,5.104,0.846c1.661,0.673,3.325,1.841,4.991,3.507c2.133,2.133,3.536,4.313,4.211,6.537
	c0.674,2.227,0.81,4.407,0.405,6.543c-0.402,2.139-1.215,4.198-2.432,6.182c-1.219,1.983-2.635,3.783-4.252,5.4
	c-1.285,1.287-2.705,2.508-4.26,3.66c-1.553,1.154-3.18,2.215-4.883,3.186c-1.703,0.97-3.424,1.822-5.161,2.56
	s-3.45,1.319-5.14,1.739l-4.392-12.704c1.888-0.421,3.742-0.976,5.563-1.664c1.556-0.556,3.201-1.302,4.938-2.239
	s3.299-2.098,4.684-3.484c1.057-1.056,1.647-1.931,1.779-2.627c0.129-0.693-0.039-1.275-0.507-1.744
	c-0.5-0.5-1.133-0.717-1.896-0.655c-0.764,0.063-1.639,0.325-2.633,0.782c-0.992,0.461-2.092,1.026-3.299,1.701
	c-1.207,0.674-2.521,1.355-3.945,2.043c-2.084,1.02-3.994,1.781-5.733,2.285c-1.737,0.506-3.36,0.73-4.871,0.672
	c-1.508-0.057-2.937-0.412-4.282-1.065c-1.347-0.653-2.67-1.63-3.97-2.931c-1.967-1.965-3.346-4.053-4.135-6.263
	c-0.791-2.209-1.075-4.424-0.854-6.646c0.221-2.221,0.857-4.372,1.907-6.458c1.052-2.083,2.45-3.999,4.2-5.749
	c1.287-1.287,2.666-2.416,4.137-3.389c1.471-0.97,2.967-1.832,4.488-2.588s3.002-1.402,4.441-1.943
	c1.44-0.54,2.756-1.006,3.948-1.398L155.152,118.466z"/>
<g>
	
		<rect x="58.05" y="105.581" transform="matrix(-0.7071 -0.7071 0.7071 -0.7071 23.0278 234.3509)" fill="#FFFFFF" width="4" height="13.65"/>
	<path fill="#FFFFFF" d="M93.98,140.701l16.422-16.424c0.605-2.129,0.848-4.256,0.726-6.381L87.625,141.4
		C89.728,141.527,91.847,141.292,93.98,140.701z"/>
	<path fill="#FFFFFF" d="M73.773,135.453l9.741-9.741c-1.078-0.75-2.106-1.604-3.082-2.575l-9.652,9.652
		C71.747,133.752,72.749,134.63,73.773,135.453z"/>
	<path fill="#FFFFFF" d="M95.471,125.803c-0.792,0.793-1.621,1.367-2.481,1.746l-12.213,12.213c1.423,0.602,2.87,1.039,4.339,1.318
		l25.704-25.705c-0.276-1.458-0.717-2.902-1.324-4.332l-12.303,12.303C96.813,124.206,96.249,125.025,95.471,125.803z"/>
	<path fill="#FFFFFF" d="M97.547,118.277c0.136,0.554,0.205,1.104,0.232,1.654l10.798-10.798c-0.045-0.084-0.085-0.169-0.132-0.253
		c-0.604-1.1-1.301-2.168-2.053-3.219l-9.895,9.895C96.97,116.46,97.325,117.367,97.547,118.277z"/>
	
		<rect x="57.468" y="114.651" transform="matrix(0.7071 -0.7071 0.7071 0.7071 -63.6543 79.6312)" fill="#FFFFFF" width="13.65" height="4"/>
	<path fill="#FFFFFF" d="M104.121,134.452c1.697-1.697,3.077-3.431,4.141-5.204l-9.347,9.347
		C100.675,137.54,102.411,136.161,104.121,134.452z"/>
	<path fill="#FFFFFF" d="M95.426,113.8l9.746-9.745c-0.822-1.02-1.697-2.021-2.666-2.992l-9.652,9.652
		C93.831,111.697,94.684,112.727,95.426,113.8z"/>
	
		<rect x="65.953" y="123.135" transform="matrix(0.7071 -0.7071 0.7071 0.7071 -67.167 88.1093)" fill="#FFFFFF" width="13.649" height="4"/>
	
		<rect x="61.71" y="118.893" transform="matrix(0.7071 -0.7071 0.7071 0.7071 -65.4113 83.8739)" fill="#FFFFFF" width="13.65" height="4"/>
	<path fill="#FFFFFF" d="M78.349,138.577c0.17,0.096,0.341,0.182,0.512,0.272l10.744-10.744c-0.516-0.031-1.035-0.098-1.56-0.226
		c-0.928-0.228-1.856-0.594-2.785-1.087l-9.876,9.876C76.351,137.357,77.334,138.007,78.349,138.577z"/>
	
		<rect x="79.544" y="92.574" transform="matrix(0.7071 -0.7071 0.7071 0.7071 -41.5768 88.7718)" fill="#FFFFFF" width="13.65" height="4"/>
	
		<rect x="88.029" y="101.059" transform="matrix(0.7071 -0.7071 0.7071 0.7071 -45.0917 97.2605)" fill="#FFFFFF" width="13.649" height="4"/>
	
		<rect x="83.786" y="96.817" transform="matrix(0.7071 -0.7071 0.7071 0.7071 -43.3346 93.0143)" fill="#FFFFFF" width="13.65" height="4"/>
	
		<rect x="75.301" y="88.332" transform="matrix(0.7071 -0.7071 0.7071 0.7071 -39.8197 84.5294)" fill="#FFFFFF" width="13.65" height="4"/>
	<path fill="#FFFFFF" d="M62.108,132.975L42.14,152.943c1.016,0.757,2.113,1.535,3.32,2.337l19.521-19.521L62.108,132.975z"/>
	<path fill="#FFFFFF" d="M66.416,137.152l-19.239,19.24c1.102,0.695,2.278,1.404,3.532,2.125l18.579-18.58L66.416,137.152z"/>
	<path fill="#FFFFFF" d="M57.801,128.798L37.48,149.119c0.891,0.814,1.906,1.683,3.059,2.597l20.134-20.134L57.801,128.798z"/>
	<path fill="#FFFFFF" d="M70.724,141.33L52.52,159.533c1.171,0.642,2.413,1.292,3.711,1.945l17.364-17.363L70.724,141.33z"/>
	<path fill="#FFFFFF" d="M80.449,171.203l10.378-10.379l-2.872-2.784l-11.768,11.767C77.678,170.32,79.097,170.784,80.449,171.203z"
		/>
	<path fill="#FFFFFF" d="M104.602,174.182l-3.723-3.608l-4.121,4.12C102.469,175.161,104.602,174.182,104.602,174.182z"/>
	<path fill="#FFFFFF" d="M87.093,173.044l8.042-8.042l-2.872-2.785l-9.639,9.639C84.215,172.314,85.703,172.709,87.093,173.044z"/>
	<path fill="#FFFFFF" d="M94.208,174.414l5.235-5.234l-2.872-2.785l-7.171,7.172C91.178,173.941,92.783,174.223,94.208,174.414z"/>
	<path fill="#FFFFFF" d="M28.504,138.296l19.245-19.246l-2.872-2.784l-18.449,18.448C27.131,136.104,27.841,137.296,28.504,138.296z
		"/>
	<path fill="#FFFFFF" d="M49.185,120.443l-19.508,19.508c1.129,1.482,1.924,2.23,1.924,2.23s0.162,0.338,0.557,0.944l19.899-19.899
		L49.185,120.443z"/>
	<path fill="#FFFFFF" d="M74.096,169.07l12.423-12.424l-2.872-2.785l-13.665,13.664C71.404,168.079,72.779,168.596,74.096,169.07z"
		/>
	<path fill="#FFFFFF" d="M53.493,124.62l-20.145,20.146c0.657,0.825,1.541,1.832,2.685,2.973l20.333-20.333L53.493,124.62z"/>
	<path fill="#FFFFFF" d="M43.583,115.01l70.124-70.768c0,0,3.359-6.154,3.021-7.376c1.793-11.181-10.313-30.448-5.779-18.192
		c2.244,6.068,0.886,9.628-1.855,11.691c-1.464-11.803-11.065-27.815-8.715-18.731c1.006,3.887,0.796,7.384-0.029,10.411
		c-5.991-9.213-18.664-17.602-12.095-10.76c8.136,8.475,2.291,15.672-1.09,18.711c-1.146,0.745-2.468,1.678-3.998,2.86
		C71.981,41.5,59.934,50.182,59.934,50.182S32.268,69.849,24.268,98.849c-4.346,15.754-1.804,27.172,1.423,34.323l18.029-18.029
		L43.583,115.01z"/>
	<path fill="#FFFFFF" d="M79.339,149.686L63.953,165.07c0.86,0.371,1.742,0.74,2.647,1.111c0.462,0.188,0.903,0.361,1.355,0.543
		l14.256-14.255L79.339,149.686z"/>
	<path fill="#FFFFFF" d="M75.032,145.508l-16.904,16.903c1.232,0.596,2.518,1.194,3.862,1.795l15.914-15.914L75.032,145.508z"/>
</g>
<path fill="#FFFFFF" d="M144.706,93.268l10.89-10.89l-20.474-5.624c0.451-2.717,0.229-5.413-0.662-8.087
	c-0.892-2.673-2.37-5.043-4.438-7.11c-1.5-1.5-3.287-2.694-5.364-3.583c-2.076-0.889-4.21-1.389-6.398-1.5
	c-2.19-0.11-4.368,0.204-6.536,0.938c-2.171,0.736-4.111,1.962-5.826,3.677L89.758,77.226l35.494,35.495l9.652-9.652L124.006,92.17
	l3.613-3.613L144.706,93.268z"/>
</svg>
