<?xml version="1.0" encoding="utf-8"?>
<!-- Generator: Adobe Illustrator 16.0.3, SVG Export Plug-In . SVG Version: 6.00 Build 0)  -->
<!DOCTYPE svg PUBLIC "-//W3C//DTD SVG 1.1//EN" "http://www.w3.org/Graphics/SVG/1.1/DTD/svg11.dtd">
<svg version="1.1" id="Layer_1" xmlns="http://www.w3.org/2000/svg" xmlns:xlink="http://www.w3.org/1999/xlink" x="0px" y="0px"
	 width="129px" height="149px" viewBox="0 0 129 149" enable-background="new 0 0 129 149" xml:space="preserve">
<g>
	<path fill="#FFFFFF" d="M79.068,88.556c0.292,1.632,0.43,3.316,0.43,5.144c0,7.229-2.291,13.155-6.892,17.777
		c-4.601,4.579-10.324,6.91-17.168,6.91c-6.824,0-12.546-2.331-17.149-6.91c-4.601-4.622-6.913-10.549-6.913-17.777
		c0-1.492,0.124-2.896,0.313-4.271L7.64,65.376C2.588,73.725,0,83.152,0,93.699c0,15.486,5.363,28.592,16.114,39.325
		c10.593,10.591,23.703,15.888,39.324,15.888c15.62,0,28.727-5.297,39.344-15.888c10.729-10.733,16.094-23.839,16.094-39.325
		c0-10.801-2.712-20.411-8.015-28.938L79.068,88.556z"/>
	<polygon fill="#FFFFFF" points="36.547,77.847 54.866,96.146 54.942,96.092 55.038,96.146 73.88,77.325 95.667,55.539 129,22.185 
		106.817,0 67.208,39.589 54.942,51.873 42.888,39.798 29.339,26.248 7.132,48.413 14.749,56.051 	"/>
</g>
</svg>
