<?xml version="1.0" encoding="utf-8"?>
<!-- Generator: Adobe Illustrator 16.0.3, SVG Export Plug-In . SVG Version: 6.00 Build 0)  -->
<!DOCTYPE svg PUBLIC "-//W3C//DTD SVG 1.1//EN" "http://www.w3.org/Graphics/SVG/1.1/DTD/svg11.dtd">
<svg version="1.1" id="Layer_1" xmlns="http://www.w3.org/2000/svg" xmlns:xlink="http://www.w3.org/1999/xlink" x="0px" y="0px"
	 width="400px" height="52px" viewBox="0 0 400 52" enable-background="new 0 0 400 52" xml:space="preserve">
<g>
	<polygon fill="#FFFFFF" points="0,14.45 15.349,14.45 15.349,44.27 22.553,44.27 22.553,14.45 37.024,14.45 37.024,7.183 0,7.183 	
		"/>
	<polygon fill="#FFFFFF" points="51.454,13.218 51.454,14.45 51.454,21.696 51.454,28.922 51.454,37.003 51.454,41.785 
		51.454,44.27 88.458,44.27 88.458,37.003 58.679,37.003 58.679,28.922 81.253,28.922 81.253,21.696 58.679,21.696 58.679,14.45 
		88.458,14.45 88.458,7.183 51.454,7.183 	"/>
	<polygon fill="#FFFFFF" points="103.827,14.45 119.155,14.45 119.155,44.207 126.463,44.207 126.463,14.45 140.83,14.45 
		140.83,7.182 103.827,7.182 	"/>
	<path fill="#FFFFFF" d="M155.406,0h-7.308v51.477h7.308h96.519v-7.204h-0.001v-8.167v-0.167V7.204h0.001V0L155.406,0L155.406,0z
		 M244.698,36.105v8.167h-36.961V7.204h8.019v28.901H244.698z M192.409,7.204v14.513h-7.267v7.205h7.267v15.351h-7.267V29.82
		h-21.718v14.452h-8.019V7.204H192.409z"/>
	<rect x="163.424" y="14.511" fill="#FFFFFF" width="21.718" height="7.206"/>
	<rect x="273.6" y="36.105" fill="#FFFFFF" width="8.123" height="8.167"/>
	<polygon fill="#FFFFFF" points="318.705,14.387 326.034,14.387 326.034,37.09 318.705,37.09 318.705,44.272 340.423,44.272 
		340.423,37.09 333.156,37.09 333.156,14.387 340.423,14.387 340.423,7.204 318.705,7.204 	"/>
	<path fill="#FFFFFF" d="M362.976,7.204v4.427v2.756v22.702v5.74v1.443H400v-4.45v-2.733V14.387V8.624v-1.42H362.976z
		 M392.733,37.089h-22.49V14.387h22.49V37.089z"/>
</g>
</svg>
