<?xml version="1.0" encoding="utf-8"?>
<!-- Generator: Adobe Illustrator 16.0.3, SVG Export Plug-In . SVG Version: 6.00 Build 0)  -->
<!DOCTYPE svg PUBLIC "-//W3C//DTD SVG 1.1//EN" "http://www.w3.org/Graphics/SVG/1.1/DTD/svg11.dtd">
<svg version="1.1" id="Layer_1" xmlns="http://www.w3.org/2000/svg" xmlns:xlink="http://www.w3.org/1999/xlink" x="0px" y="0px"
	 width="258px" height="200px" viewBox="0 0 258 200" enable-background="new 0 0 258 200" xml:space="preserve">
<path fill="#FFFFFF" d="M77.795,57.401v-4.085h-4.084h-4.085h-4.084h-4.085h-4.134h-4.084h-4.085h-4.084v4.085h-4.13v4.084v4.085
	v4.085v4.084v4.085v4.083h-4.085v4.085H32.77h-4.085v4.18h-4.13v4.084H20.47v4.085h-4.085h-4.084v-4.085H8.168v-4.084H4.084v-4.18
	v-4.085H0v4.085v4.18v4.084v4.085v4.084v4.085h4.084v4.084h4.084v4.085h4.133v4.085h4.084v4.179h4.085v4.084v4.085v4.085v4.085
	h4.084h4.13v-4.085h-4.13v-4.085h4.13v-4.085h4.085v-4.084h4.084v4.084h4.085v4.085v4.085v4.085h4.13h4.084v-4.085h-4.084v-4.085
	v-4.085v-4.084v-4.179h4.084v-4.085h4.085v-4.085h4.084v-4.084v-4.085v-4.084v-4.085h4.131v4.085h4.085v-4.085v-4.084h-4.085h-4.131
	v-4.18v-4.085h4.131h4.085h4.084h4.085v-4.081h-4.085H65.54h-4.085v-4.085h4.085h4.084h4.085h4.084h4.125v-4.085v-4.084v-4.088
	v-4.084H77.795L77.795,57.401z M53.239,57.401v4.084h-4.085v-4.084H53.239L53.239,57.401z"/>
<polygon fill="#FFFFFF" points="253.915,73.74 253.915,69.656 249.83,69.656 249.83,73.74 249.83,77.827 249.83,81.911 
	249.83,85.996 249.83,90.174 249.83,94.259 249.83,98.344 249.83,102.428 249.83,106.515 245.745,106.515 245.745,102.428 
	245.745,98.344 245.745,94.259 245.745,90.174 245.745,85.996 245.745,81.911 245.745,77.827 245.745,73.74 245.745,69.656 
	245.745,65.572 245.745,61.485 245.745,57.401 241.661,57.401 241.661,53.316 237.576,53.316 233.491,53.316 233.491,57.401 
	229.406,57.401 229.406,61.485 229.406,65.572 229.406,69.656 229.406,73.74 229.406,77.827 229.406,81.911 229.406,85.996 
	229.406,90.174 229.406,94.259 229.406,98.344 229.406,102.428 229.406,106.515 225.321,106.515 225.321,102.428 225.321,98.344 
	225.321,94.259 225.321,90.174 225.321,85.996 225.321,81.911 225.321,77.827 221.143,77.827 221.143,73.74 217.058,73.74 
	217.058,77.827 212.973,77.827 212.973,81.911 212.973,85.996 212.973,90.174 212.973,94.259 212.973,98.344 212.973,102.428 
	212.973,106.515 212.973,110.599 217.058,110.599 217.058,114.684 221.143,114.684 225.321,114.684 229.406,114.684 
	229.406,118.768 229.406,122.947 229.406,127.032 229.406,131.117 229.406,135.202 229.406,139.287 233.491,139.287 
	237.576,139.287 241.661,139.287 245.745,139.287 245.745,135.202 245.745,131.117 245.745,127.032 245.745,122.947 
	245.745,118.768 245.745,114.684 245.745,110.599 249.83,110.599 253.915,110.599 253.915,106.515 258,106.515 258,102.428 
	258,98.344 258,94.259 258,90.174 258,85.996 258,81.911 258,77.827 258,73.74 "/>
<polygon fill="#FFFFFF" points="200.718,36.884 196.631,36.884 192.544,36.884 188.459,36.884 184.293,36.884 180.202,36.884 
	180.202,32.797 176.117,32.797 176.117,28.713 176.117,24.628 172.032,24.628 172.032,20.545 167.947,20.545 167.947,16.365 
	163.862,16.365 163.862,12.28 159.768,12.28 159.768,8.196 155.683,8.196 155.683,4.11 151.525,4.11 151.525,0.025 147.44,0.025 
	147.44,4.11 147.44,8.196 147.44,12.28 151.525,12.28 151.525,16.365 151.525,20.545 151.525,24.628 151.525,28.713 147.44,28.713 
	147.44,24.628 147.44,20.545 143.344,20.545 143.344,16.365 143.344,12.28 139.259,12.28 135.174,12.28 135.174,16.365 
	131.089,16.365 131.089,20.545 126.986,20.545 126.986,24.628 122.902,24.628 122.902,28.713 118.813,28.713 118.813,32.797 
	122.902,32.797 126.986,32.797 131.089,32.797 135.174,32.797 139.259,32.797 143.344,32.797 143.344,36.884 147.44,36.884 
	147.44,40.968 151.525,40.968 151.525,45.053 155.683,45.053 155.683,49.137 159.768,49.137 159.768,53.316 163.862,53.316 
	167.947,53.316 172.032,53.316 176.117,53.316 180.202,53.316 184.293,53.316 188.459,53.316 188.459,49.137 192.544,49.137 
	196.631,49.137 200.718,49.137 200.718,45.053 196.631,45.053 192.544,45.053 192.544,40.968 196.631,40.968 200.718,40.968 
	204.803,40.968 204.803,36.884 "/>
<g>
	<path fill="#FFFFFF" d="M46.471,196.859v3.115H30.899v-3.115h3.116v-24.914h-3.116v-3.113h15.572v3.113h3.115v3.115h3.114v18.685
		h-3.114v3.114H46.471z M46.471,175.06h-3.115v-3.114h-3.115v24.914h3.115v-3.114h3.115V175.06z"/>
	<path fill="#FFFFFF" d="M65.156,168.832h12.457v3.113h-3.115v24.914h3.115v3.115H65.156v-3.115h3.115v-24.914h-3.115V168.832z"/>
	<path fill="#FFFFFF" d="M99.413,184.402h-3.115v-3.113h-3.115v18.685h-6.229v-31.142h6.229v3.113h3.115v3.115h3.115v3.116h3.115
		v-9.345h6.229v31.142h-6.229v-12.457h-3.115V184.402z"/>
	<path fill="#FFFFFF" d="M114.983,171.945h3.115v-3.113h15.573v3.113h3.114v24.914h-3.114v3.115h-15.573v-3.115h-3.115V171.945z
		 M130.555,171.945h-9.343v24.914h9.343V171.945z"/>
	<path fill="#FFFFFF" d="M152.354,193.745h6.229v6.229h-6.229V193.745z"/>
	<path fill="#FFFFFF" d="M177.267,168.832h12.458v3.113h-3.116v24.914h3.116v3.115h-12.458v-3.115h3.115v-24.914h-3.115V168.832z"/>
	<path fill="#FFFFFF" d="M199.066,171.945h3.116v-3.113h15.57v3.113h3.116v24.914h-3.116v3.115h-15.57v-3.115h-3.116V171.945
		L199.066,171.945z M214.639,171.945h-9.344v24.914h9.344V171.945z"/>
</g>
</svg>
